<svg width="345" height="245" viewBox="0 0 345 245" fill="none" xmlns="http://www.w3.org/2000/svg">
<path d="M282.641 194.296C279.605 189.651 277.629 184.394 276.875 178.893C276.773 179.015 276.671 179.157 276.59 179.28C277.283 179.219 277.874 179.361 278.424 179.789C278.729 180.034 279.157 179.606 278.852 179.361C278.159 178.831 277.446 178.587 276.59 178.668C276.366 178.689 276.264 178.852 276.305 179.056C277.079 184.618 279.055 189.915 282.132 194.602C282.336 194.928 282.865 194.622 282.641 194.296Z" fill="#E8E8E8"/>
<path d="M278.832 179.463C278.139 172.311 279.239 165.099 282.051 158.477C281.868 158.477 281.705 158.477 281.521 158.477C281.827 158.925 282.051 159.353 282.234 159.862C282.357 160.229 282.948 160.066 282.825 159.699C282.622 159.149 282.397 158.66 282.051 158.171C281.929 158.008 281.623 157.947 281.521 158.171C278.669 164.895 277.528 172.21 278.221 179.463C278.261 179.85 278.873 179.871 278.832 179.463Z" fill="#E8E8E8"/>
<path d="M283.008 159.597C283.722 157.866 284.516 156.154 285.413 154.524C286.167 153.159 287.246 150.408 289.202 150.795C291.179 151.183 291.831 153.811 292.259 155.461C292.727 157.295 292.931 159.19 292.992 161.064C293.114 164.61 292.829 168.175 292.585 171.7C292.32 175.449 291.892 179.198 291.016 182.866C290.058 186.941 288.632 190.873 286.819 194.622C286.656 194.968 287.165 195.294 287.348 194.928C289.141 191.24 290.568 187.369 291.525 183.375C292.524 179.28 292.972 175.103 293.237 170.906C293.502 166.729 293.909 162.45 293.4 158.273C293.094 155.767 292.361 150.266 288.938 150.103C287.145 150.021 286.207 151.896 285.453 153.2C284.292 155.196 283.294 157.275 282.418 159.414C282.275 159.801 282.866 159.964 283.008 159.597Z" fill="#E8E8E8"/>
<path d="M293.053 174.186C293.746 172.8 294.561 171.496 295.539 170.315C296.007 169.744 298.208 166.81 299.084 167.483C299.267 167.625 299.329 168.318 299.369 168.562C299.492 169.072 299.573 169.602 299.614 170.131C299.695 170.946 299.716 171.741 299.675 172.556C299.593 174.288 299.288 176.02 298.86 177.711C297.311 183.884 294.54 189.712 290.934 194.928C290.71 195.254 291.24 195.559 291.464 195.233C295.641 189.223 299.043 182.01 300.082 174.695C300.327 172.963 300.408 171.211 300.164 169.479C300.062 168.725 299.919 166.28 298.677 166.525C298.106 166.647 297.576 167.299 297.169 167.666C296.517 168.277 295.885 168.929 295.315 169.602C294.214 170.906 293.277 172.332 292.523 173.86C292.34 174.227 292.87 174.532 293.053 174.186Z" fill="#E8E8E8"/>
<path d="M132.865 195.07C130.176 191.994 127.955 188.53 126.284 184.801C126.244 184.944 126.203 185.087 126.182 185.229C126.997 184.862 127.812 184.72 128.709 184.781C129.096 184.801 129.096 184.19 128.709 184.17C127.711 184.109 126.794 184.292 125.877 184.699C125.714 184.781 125.714 184.985 125.775 185.127C127.486 188.917 129.728 192.401 132.458 195.519C132.682 195.804 133.13 195.376 132.865 195.07Z" fill="#E8E8E8"/>
<path d="M128.75 183.925C127.14 181.113 126.121 177.996 125.836 174.777C125.653 172.739 125.286 165.445 129.096 167.442C130.441 168.155 131.215 169.683 131.908 170.967C132.723 172.454 133.436 174.003 134.068 175.571C135.209 178.444 136.044 181.439 136.553 184.475C137.165 188.082 137.307 191.749 137.022 195.417C136.981 195.804 137.613 195.804 137.633 195.417C138.204 188.061 136.961 180.624 133.986 173.86C133.253 172.189 132.438 170.478 131.419 168.95C130.685 167.849 129.687 166.769 128.322 166.525C125.062 165.934 125.103 170.844 125.103 172.882C125.123 176.875 126.203 180.787 128.2 184.251C128.424 184.557 128.953 184.251 128.75 183.925Z" fill="#E8E8E8"/>
<path d="M135.881 178.791C135.758 177.263 136.207 170.294 139.1 171.761C141.402 172.923 141.891 176.529 142.013 178.811C142.156 181.399 142.054 184.007 141.993 186.594C141.912 189.304 141.708 191.994 140.771 194.561C140.628 194.928 141.219 195.091 141.361 194.724C142.523 191.586 142.584 188.245 142.645 184.944C142.706 181.827 142.971 178.505 142.136 175.449C141.667 173.758 139.996 170.029 137.592 171.15C136.573 171.639 136.125 173.025 135.799 174.023C135.31 175.592 135.147 177.201 135.269 178.831C135.29 179.198 135.901 179.198 135.881 178.791Z" fill="#E8E8E8"/>
<path d="M127.201 167.034C129.829 172.902 131.989 178.954 133.639 185.168C133.741 185.555 134.332 185.392 134.23 185.005C132.559 178.75 130.4 172.637 127.73 166.729C127.567 166.362 127.038 166.668 127.201 167.034Z" fill="#E8E8E8"/>
<path d="M125.509 175.082C128.627 176.183 131.153 178.444 132.6 181.419C132.783 181.765 133.293 181.46 133.13 181.113C131.602 177.996 128.932 175.653 125.672 174.492C125.306 174.369 125.143 174.96 125.509 175.082Z" fill="#E8E8E8"/>
<path d="M131.602 169.785C131.052 171.598 130.767 173.452 130.706 175.327C130.685 175.714 131.296 175.714 131.317 175.327C131.378 173.493 131.663 171.7 132.193 169.948C132.295 169.561 131.704 169.398 131.602 169.785Z" fill="#E8E8E8"/>
<path d="M135.717 175.082C137.633 177.324 138.998 179.891 139.813 182.723C139.915 183.11 140.505 182.947 140.404 182.56C139.568 179.626 138.142 176.957 136.166 174.655C135.901 174.349 135.473 174.777 135.717 175.082Z" fill="#E8E8E8"/>
<path d="M138.753 174.919C140.077 181.501 139.853 188 139.16 194.642C139.12 195.03 139.731 195.03 139.772 194.642C140.485 187.959 140.688 181.399 139.344 174.756C139.262 174.369 138.671 174.532 138.753 174.919Z" fill="#E8E8E8"/>
<path d="M99.0625 121.944C99.0625 123.391 99.0625 124.838 99.0625 126.305C99.0625 126.692 99.6737 126.692 99.6737 126.305C99.6737 124.858 99.6737 123.411 99.6737 121.944C99.6737 121.557 99.0625 121.557 99.0625 121.944Z" fill="#E8E8E8"/>
<path d="M99.3685 126.712C106.5 126.712 113.611 126.712 120.742 126.712C121.129 126.712 121.129 126.101 120.742 126.101C113.611 126.101 106.5 126.101 99.3685 126.101C98.9813 126.101 98.9813 126.712 99.3685 126.712Z" fill="#E8E8E8"/>
<path d="M99.3685 122.189C106.54 122.189 113.712 122.189 120.884 122.189C121.272 122.189 121.272 121.578 120.884 121.578C113.712 121.578 106.54 121.578 99.3685 121.578C98.9813 121.578 98.9813 122.189 99.3685 122.189Z" fill="#E8E8E8"/>
<path d="M120.579 121.843C120.579 123.33 120.579 124.817 120.579 126.305C120.579 126.692 121.19 126.692 121.19 126.305C121.19 124.817 121.19 123.33 121.19 121.843C121.19 121.435 120.579 121.435 120.579 121.843Z" fill="#E8E8E8"/>
<path d="M107.11 126.631C107.11 127.874 107.11 129.116 107.11 130.359C107.11 130.746 107.722 130.746 107.722 130.359C107.722 129.116 107.722 127.874 107.722 126.631C107.722 126.244 107.11 126.244 107.11 126.631Z" fill="#E8E8E8"/>
<path d="M107.457 130.889C113.142 130.889 118.826 130.889 124.511 130.889C124.898 130.889 124.898 130.278 124.511 130.278C118.826 130.278 113.142 130.278 107.457 130.278C107.049 130.278 107.049 130.889 107.457 130.889Z" fill="#E8E8E8"/>
<path d="M120.926 126.753C122.189 126.753 123.452 126.753 124.736 126.753C125.123 126.753 125.123 126.142 124.736 126.142C123.473 126.142 122.209 126.142 120.926 126.142C120.518 126.142 120.518 126.753 120.926 126.753Z" fill="#E8E8E8"/>
<path d="M124.45 126.671C124.45 127.935 124.45 129.198 124.45 130.482C124.45 130.869 125.061 130.869 125.061 130.482C125.061 129.218 125.061 127.955 125.061 126.671C125.061 126.284 124.45 126.284 124.45 126.671Z" fill="#E8E8E8"/>
<path d="M122.494 130.665C122.494 132.05 122.494 133.416 122.494 134.801C122.494 135.188 123.105 135.188 123.105 134.801C123.105 133.416 123.105 132.05 123.105 130.665C123.105 130.257 122.494 130.257 122.494 130.665Z" fill="#E8E8E8"/>
<path d="M122.881 135.127C127.567 135.127 132.253 135.127 136.94 135.127C137.327 135.127 137.327 134.516 136.94 134.516C132.253 134.516 127.567 134.516 122.881 134.516C122.473 134.516 122.473 135.127 122.881 135.127Z" fill="#E8E8E8"/>
<path d="M124.797 130.93C128.872 130.93 132.947 130.93 137.022 130.93C137.409 130.93 137.409 130.319 137.022 130.319C132.947 130.319 128.872 130.319 124.797 130.319C124.41 130.319 124.41 130.93 124.797 130.93Z" fill="#E8E8E8"/>
<path d="M136.676 130.583C136.676 131.908 136.676 133.212 136.676 134.536C136.676 134.923 137.287 134.923 137.287 134.536C137.287 133.212 137.287 131.908 137.287 130.583C137.287 130.196 136.676 130.196 136.676 130.583Z" fill="#E8E8E8"/>
<path d="M122.78 134.495C118.888 134.495 114.996 134.495 111.105 134.495C110.718 134.495 110.718 135.107 111.105 135.107C114.996 135.107 118.888 135.107 122.78 135.107C123.167 135.107 123.167 134.495 122.78 134.495Z" fill="#E8E8E8"/>
<path d="M111.349 134.76C111.349 133.456 111.349 132.152 111.349 130.828C111.349 130.441 110.737 130.441 110.737 130.828C110.737 132.132 110.737 133.436 110.737 134.76C110.737 135.147 111.349 135.147 111.349 134.76Z" fill="#E8E8E8"/>
<path d="M86.2266 34.5764C86.2266 49.3075 86.2266 64.0183 86.2266 78.7494C86.2266 79.1365 86.8378 79.1365 86.8378 78.7494C86.8378 64.0183 86.8378 49.3075 86.8378 34.5764C86.8378 34.1893 86.2266 34.1893 86.2266 34.5764Z" fill="#E8E8E8"/>
<path d="M86.4915 79.1976C100.836 79.1976 115.18 79.1976 129.524 79.1976C133.578 79.1976 137.653 79.1976 141.708 79.1976C142.095 79.1976 142.095 78.5864 141.708 78.5864C127.364 78.5864 113.02 78.5864 98.6758 78.5864C94.6211 78.5864 90.5461 78.5864 86.4915 78.5864C86.1044 78.5864 86.1044 79.1976 86.4915 79.1976Z" fill="#E8E8E8"/>
<path d="M86.6341 34.5764C100.815 34.5764 114.996 34.5764 129.177 34.5764C133.191 34.5764 137.184 34.5764 141.198 34.5764C141.585 34.5764 141.585 33.9651 141.198 33.9651C127.017 33.9651 112.836 33.9651 98.6553 33.9651C94.6415 33.9651 90.648 33.9651 86.6341 33.9651C86.247 33.9651 86.247 34.5764 86.6341 34.5764Z" fill="#E8E8E8"/>
<path d="M141.524 34.4541C141.524 49.1853 141.524 63.9164 141.524 78.6679C141.524 79.055 142.136 79.055 142.136 78.6679C142.136 63.9368 142.136 49.2056 142.136 34.4541C142.136 34.067 141.524 34.067 141.524 34.4541Z" fill="#E8E8E8"/>
<path d="M89.2422 36.8176C89.2422 50.1225 89.2422 63.4274 89.2422 76.7119C89.2422 77.099 89.8534 77.099 89.8534 76.7119C89.8534 63.407 89.8534 50.1021 89.8534 36.8176C89.8534 36.4101 89.2422 36.4101 89.2422 36.8176Z" fill="#E8E8E8"/>
<path d="M89.507 77.1398C105.848 77.1398 122.189 77.1398 138.509 77.1398C138.896 77.1398 138.896 76.5285 138.509 76.5285C122.168 76.5285 105.827 76.5285 89.507 76.5285C89.1199 76.5285 89.0995 77.1398 89.507 77.1398Z" fill="#E8E8E8"/>
<path d="M89.6292 36.838C105.766 36.838 121.924 36.838 138.061 36.838C138.448 36.838 138.448 36.2268 138.061 36.2268C121.924 36.2268 105.766 36.2268 89.6292 36.2268C89.2421 36.2268 89.2421 36.838 89.6292 36.838Z" fill="#E8E8E8"/>
<path d="M138.305 36.6954C138.305 50.0003 138.305 63.3255 138.305 76.6304C138.305 77.0175 138.916 77.0175 138.916 76.6304C138.916 63.3255 138.916 50.0003 138.916 36.6954C138.916 36.3083 138.305 36.3083 138.305 36.6954Z" fill="#E8E8E8"/>
<path d="M113.224 36.8788C113.224 43.3784 113.224 49.8576 113.224 56.3573C113.224 56.7444 113.835 56.7444 113.835 56.3573C113.835 49.8576 113.835 43.3784 113.835 36.8788C113.835 36.4713 113.224 36.4713 113.224 36.8788Z" fill="#E8E8E8"/>
<path d="M113.529 56.0313C105.766 56.0313 97.9829 56.0313 90.22 56.0313C89.8329 56.0313 89.8329 56.6425 90.22 56.6425C97.9829 56.6425 105.766 56.6425 113.529 56.6425C113.916 56.6425 113.916 56.0313 113.529 56.0313Z" fill="#E8E8E8"/>
<path d="M116.26 36.8788C116.26 43.3173 116.26 49.7354 116.26 56.1739C116.26 56.561 116.871 56.561 116.871 56.1739C116.871 49.7354 116.871 43.3173 116.871 36.8788C116.871 36.4713 116.26 36.4713 116.26 36.8788Z" fill="#E8E8E8"/>
<path d="M116.565 56.8259C123.737 56.8259 130.909 56.8259 138.081 56.8259C138.469 56.8259 138.469 56.2146 138.081 56.2146C130.909 56.2146 123.737 56.2146 116.565 56.2146C116.158 56.2146 116.158 56.8259 116.565 56.8259Z" fill="#E8E8E8"/>
<path d="M90.0373 59.6784C97.8409 59.6784 105.645 59.6784 113.428 59.6784C113.815 59.6784 113.815 59.0671 113.428 59.0671C105.624 59.0671 97.8205 59.0671 90.0373 59.0671C89.6502 59.0671 89.6298 59.6784 90.0373 59.6784Z" fill="#E8E8E8"/>
<path d="M113.122 59.4543C113.122 65.1796 113.122 70.8846 113.122 76.61C113.122 76.9971 113.733 76.9971 113.733 76.61C113.733 70.8846 113.733 65.1796 113.733 59.4543C113.733 59.0671 113.122 59.0671 113.122 59.4543Z" fill="#E8E8E8"/>
<path d="M116.157 59.9025C116.157 65.4649 116.157 71.0273 116.157 76.61C116.157 76.9972 116.768 76.9972 116.768 76.61C116.768 71.0477 116.768 65.4853 116.768 59.9025C116.768 59.5154 116.157 59.5154 116.157 59.9025Z" fill="#E8E8E8"/>
<path d="M116.381 60.31C123.736 60.31 131.092 60.31 138.447 60.31C138.834 60.31 138.834 59.6988 138.447 59.6988C131.092 59.6988 123.736 59.6988 116.381 59.6988C115.994 59.6988 115.974 60.31 116.381 60.31Z" fill="#E8E8E8"/>
<path d="M131.622 37.0214C127.038 42.1966 122.739 47.6164 118.705 53.2399C118.48 53.5659 119.01 53.8715 119.234 53.5455C123.228 47.9628 127.507 42.5838 132.05 37.4493C132.315 37.164 131.887 36.7158 131.622 37.0214Z" fill="#E8E8E8"/>
<path d="M131.581 44.5601C129.462 47.1274 127.343 49.6946 125.224 52.2415C124.98 52.5471 125.408 52.975 125.652 52.6694C127.771 50.1021 129.89 47.5349 132.009 44.988C132.254 44.6824 131.826 44.2545 131.581 44.5601Z" fill="#E8E8E8"/>
<path d="M92.3804 76.3859C97.7186 71.0476 103.057 65.689 108.395 60.3508C108.68 60.0655 108.232 59.6376 107.967 59.9229C102.629 65.2611 97.2907 70.6198 91.9525 75.958C91.6876 76.2229 92.1155 76.6508 92.3804 76.3859Z" fill="#E8E8E8"/>
<path d="M101.61 74.5114C103.424 72.1887 105.339 69.9882 107.397 67.8895C107.682 67.6043 107.234 67.1764 106.969 67.4617C104.911 69.5603 102.975 71.7608 101.182 74.0835C100.938 74.3892 101.366 74.8374 101.61 74.5114Z" fill="#E8E8E8"/>
<path d="M240.71 33.904C240.71 48.6351 240.71 63.3459 240.71 78.077C240.71 78.4641 241.321 78.4641 241.321 78.077C241.321 63.3459 241.321 48.6351 241.321 33.904C241.321 33.5169 240.71 33.5169 240.71 33.904Z" fill="#E8E8E8"/>
<path d="M240.975 78.5253C255.319 78.5253 269.663 78.5253 284.007 78.5253C288.062 78.5253 292.137 78.5253 296.191 78.5253C296.578 78.5253 296.578 77.914 296.191 77.914C281.847 77.914 267.503 77.914 253.159 77.914C249.105 77.914 245.03 77.914 240.975 77.914C240.588 77.914 240.588 78.5253 240.975 78.5253Z" fill="#E8E8E8"/>
<path d="M241.117 33.9244C255.298 33.9244 269.479 33.9244 283.66 33.9244C287.674 33.9244 291.668 33.9244 295.682 33.9244C296.069 33.9244 296.069 33.3131 295.682 33.3131C281.501 33.3131 267.32 33.3131 253.139 33.3131C249.125 33.3131 245.131 33.3131 241.117 33.3131C240.73 33.3131 240.73 33.9244 241.117 33.9244Z" fill="#E8E8E8"/>
<path d="M296.008 33.7818C296.008 48.5129 296.008 63.244 296.008 77.9955C296.008 78.3826 296.619 78.3826 296.619 77.9955C296.619 63.2644 296.619 48.5333 296.619 33.7818C296.619 33.3946 296.008 33.3946 296.008 33.7818Z" fill="#E8E8E8"/>
<path d="M243.726 36.1453C243.726 49.4501 243.726 62.755 243.726 76.0395C243.726 76.4266 244.337 76.4266 244.337 76.0395C244.337 62.7346 244.337 49.4298 244.337 36.1453C244.337 35.7378 243.726 35.7378 243.726 36.1453Z" fill="#E8E8E8"/>
<path d="M243.99 76.4674C260.331 76.4674 276.672 76.4674 292.992 76.4674C293.379 76.4674 293.379 75.8561 292.992 75.8561C276.651 75.8561 260.311 75.8561 243.99 75.8561C243.583 75.8561 243.583 76.4674 243.99 76.4674Z" fill="#E8E8E8"/>
<path d="M244.113 36.1656C260.25 36.1656 276.407 36.1656 292.544 36.1656C292.931 36.1656 292.931 35.5544 292.544 35.5544C276.407 35.5544 260.25 35.5544 244.113 35.5544C243.725 35.5544 243.725 36.1656 244.113 36.1656Z" fill="#E8E8E8"/>
<path d="M292.788 36.023C292.788 49.3279 292.788 62.6531 292.788 75.958C292.788 76.3451 293.399 76.3451 293.399 75.958C293.399 62.6531 293.399 49.3279 293.399 36.023C293.399 35.6359 292.788 35.6359 292.788 36.023Z" fill="#E8E8E8"/>
<path d="M267.707 36.2064C267.707 42.706 267.707 49.1853 267.707 55.6849C267.707 56.072 268.318 56.072 268.318 55.6849C268.318 49.1853 268.318 42.706 268.318 36.2064C268.318 35.7989 267.707 35.7989 267.707 36.2064Z" fill="#E8E8E8"/>
<path d="M268.012 55.3589C260.25 55.3589 252.466 55.3589 244.703 55.3589C244.316 55.3589 244.316 55.9702 244.703 55.9702C252.466 55.9702 260.25 55.9702 268.012 55.9702C268.4 55.9702 268.4 55.3589 268.012 55.3589Z" fill="#E8E8E8"/>
<path d="M270.742 36.2064C270.742 42.6449 270.742 49.063 270.742 55.5015C270.742 55.8886 271.353 55.8886 271.353 55.5015C271.353 49.063 271.353 42.6449 271.353 36.2064C271.353 35.7989 270.742 35.7989 270.742 36.2064Z" fill="#E8E8E8"/>
<path d="M271.048 56.1535C278.22 56.1535 285.392 56.1535 292.564 56.1535C292.951 56.1535 292.951 55.5423 292.564 55.5423C285.392 55.5423 278.22 55.5423 271.048 55.5423C270.64 55.5423 270.64 56.1535 271.048 56.1535Z" fill="#E8E8E8"/>
<path d="M244.52 59.006C252.324 59.006 260.128 59.006 267.911 59.006C268.298 59.006 268.298 58.3948 267.911 58.3948C260.107 58.3948 252.304 58.3948 244.52 58.3948C244.113 58.3948 244.113 59.006 244.52 59.006Z" fill="#E8E8E8"/>
<path d="M267.604 58.8023C267.604 64.5276 267.604 70.2326 267.604 75.958C267.604 76.3451 268.216 76.3451 268.216 75.958C268.216 70.2326 268.216 64.5276 268.216 58.8023C268.216 58.3948 267.604 58.3948 267.604 58.8023Z" fill="#E8E8E8"/>
<path d="M270.641 59.2505C270.641 64.8129 270.641 70.3753 270.641 75.958C270.641 76.3451 271.252 76.3451 271.252 75.958C271.252 70.3956 271.252 64.8333 271.252 59.2505C271.252 58.843 270.641 58.843 270.641 59.2505Z" fill="#E8E8E8"/>
<path d="M270.864 59.6376C278.22 59.6376 285.575 59.6376 292.93 59.6376C293.317 59.6376 293.317 59.0264 292.93 59.0264C285.575 59.0264 278.22 59.0264 270.864 59.0264C270.457 59.0264 270.457 59.6376 270.864 59.6376Z" fill="#E8E8E8"/>
<path d="M286.106 36.349C281.521 41.5243 277.222 46.944 273.188 52.5675C272.964 52.8935 273.494 53.1991 273.718 52.8731C277.711 47.2904 281.99 41.9114 286.534 36.7769C286.798 36.4916 286.371 36.0638 286.106 36.349Z" fill="#E8E8E8"/>
<path d="M286.065 43.8878C283.946 46.455 281.827 49.0223 279.708 51.5691C279.463 51.8748 279.891 52.3026 280.136 51.997C282.255 49.4298 284.374 46.8625 286.493 44.3156C286.737 44.01 286.309 43.5821 286.065 43.8878Z" fill="#E8E8E8"/>
<path d="M246.863 75.7135C252.201 70.3753 257.539 65.0166 262.878 59.6784C263.163 59.3931 262.715 58.9653 262.45 59.2505C257.111 64.5888 251.773 69.9474 246.435 75.2856C246.17 75.5505 246.598 75.9784 246.863 75.7135Z" fill="#E8E8E8"/>
<path d="M256.093 73.8594C257.906 71.5366 259.821 69.3361 261.879 67.2375C262.164 66.9523 261.716 66.5244 261.451 66.8096C259.393 68.9083 257.458 71.1088 255.665 73.4315C255.42 73.7168 255.848 74.165 256.093 73.8594Z" fill="#E8E8E8"/>
<path d="M239.61 99.8783C246.802 99.8783 254.015 99.8783 261.207 99.8783C261.594 99.8783 261.594 99.267 261.207 99.267C254.015 99.267 246.802 99.267 239.61 99.267C239.223 99.267 239.223 99.8783 239.61 99.8783Z" fill="#E8E8E8"/>
<path d="M250.164 99.8375C250.164 101.203 250.164 102.547 250.164 103.913C250.164 104.3 250.775 104.3 250.775 103.913C250.775 102.547 250.775 101.203 250.775 99.8375C250.775 99.4504 250.164 99.4504 250.164 99.8375Z" fill="#E8E8E8"/>
<path d="M250.469 104.218C256.133 104.218 261.798 104.218 267.441 104.218C267.829 104.218 267.829 103.607 267.441 103.607C261.777 103.607 256.113 103.607 250.469 103.607C250.082 103.607 250.082 104.218 250.469 104.218Z" fill="#E8E8E8"/>
<path d="M261.166 99.6949C261.166 100.999 261.166 102.323 261.166 103.627C261.166 104.014 261.777 104.014 261.777 103.627C261.777 102.323 261.777 100.999 261.777 99.6949C261.777 99.3078 261.166 99.3078 261.166 99.6949Z" fill="#E8E8E8"/>
<path d="M239.915 99.43C239.915 98.3501 239.915 97.2499 239.915 96.17C239.915 95.7829 239.304 95.7829 239.304 96.17C239.304 97.2499 239.304 98.3501 239.304 99.43C239.304 99.8171 239.915 99.8171 239.915 99.43Z" fill="#E8E8E8"/>
<path d="M239.874 96.333C245.131 96.333 250.388 96.333 255.624 96.333C256.011 96.333 256.011 95.7218 255.624 95.7218C250.367 95.7218 245.111 95.7218 239.874 95.7218C239.487 95.7218 239.487 96.333 239.874 96.333Z" fill="#E8E8E8"/>
<path d="M255.461 96.4349C255.461 97.474 255.461 98.5131 255.461 99.5523C255.461 99.9394 256.072 99.9394 256.072 99.5523C256.072 98.5131 256.072 97.474 256.072 96.4349C256.072 96.0478 255.461 96.0478 255.461 96.4349Z" fill="#E8E8E8"/>
<path d="M236.35 104.361C241.383 104.361 246.395 104.361 251.427 104.361C251.815 104.361 251.815 103.75 251.427 103.75C246.395 103.75 241.383 103.75 236.35 103.75C235.963 103.75 235.963 104.361 236.35 104.361Z" fill="#E8E8E8"/>
<path d="M235.901 104.32C235.901 105.461 235.901 106.582 235.901 107.723C235.901 108.11 236.513 108.11 236.513 107.723C236.513 106.582 236.513 105.461 236.513 104.32C236.513 103.933 235.901 103.933 235.901 104.32Z" fill="#E8E8E8"/>
<path d="M236.206 108.293C241.015 108.293 245.803 108.293 250.611 108.293C250.999 108.293 250.999 107.682 250.611 107.682C245.803 107.682 241.015 107.682 236.206 107.682C235.819 107.682 235.819 108.293 236.206 108.293Z" fill="#E8E8E8"/>
<path d="M250.306 104.32C250.306 105.502 250.306 106.684 250.306 107.845C250.306 108.232 250.917 108.232 250.917 107.845C250.917 106.663 250.917 105.481 250.917 104.32C250.917 103.933 250.306 103.933 250.306 104.32Z" fill="#E8E8E8"/>
<path d="M135.452 90.8929C144.336 90.8929 153.199 90.8929 162.083 90.8929C162.47 90.8929 162.47 90.2816 162.083 90.2816C153.199 90.2816 144.336 90.2816 135.452 90.2816C135.065 90.2816 135.065 90.8929 135.452 90.8929Z" fill="#E8E8E8"/>
<path d="M135.637 90.5873C135.637 89.4463 135.637 88.3053 135.637 87.1643C135.637 86.7771 135.025 86.7771 135.025 87.1643C135.025 88.3053 135.025 89.4463 135.025 90.5873C135.025 90.9744 135.637 90.9744 135.637 90.5873Z" fill="#E8E8E8"/>
<path d="M135.677 87.1031C140.424 87.1031 145.192 87.1031 149.94 87.1031C150.327 87.1031 150.327 86.4919 149.94 86.4919C145.192 86.4919 140.424 86.4919 135.677 86.4919C135.29 86.4919 135.29 87.1031 135.677 87.1031Z" fill="#E8E8E8"/>
<path d="M149.634 87.1643C149.634 88.2645 149.634 89.3648 149.634 90.465C149.634 90.8521 150.245 90.8521 150.245 90.465C150.245 89.3648 150.245 88.2645 150.245 87.1643C150.245 86.7568 149.634 86.7568 149.634 87.1643Z" fill="#E8E8E8"/>
<path d="M145.742 91.0559C145.742 92.1969 145.742 93.3379 145.742 94.4789C145.742 94.866 146.353 94.866 146.353 94.4789C146.353 93.3379 146.353 92.1969 146.353 91.0559C146.353 90.6484 145.742 90.6484 145.742 91.0559Z" fill="#E8E8E8"/>
<path d="M146.169 95.0086C151.345 95.0086 156.54 95.0086 161.715 95.0086C162.102 95.0086 162.102 94.3974 161.715 94.3974C156.54 94.3974 151.345 94.3974 146.169 94.3974C145.782 94.3974 145.782 95.0086 146.169 95.0086Z" fill="#E8E8E8"/>
<path d="M161.777 90.9336C161.777 92.2376 161.777 93.5213 161.777 94.8253C161.777 95.2124 162.389 95.2124 162.389 94.8253C162.389 93.5213 162.389 92.2376 162.389 90.9336C162.389 90.5465 161.777 90.5465 161.777 90.9336Z" fill="#E8E8E8"/>
<path d="M149.511 94.9272C149.511 95.9867 149.511 97.0462 149.511 98.1057C149.511 98.4928 150.122 98.4928 150.122 98.1057C150.122 97.0462 150.122 95.9867 150.122 94.9272C150.122 94.54 149.511 94.54 149.511 94.9272Z" fill="#E8E8E8"/>
<path d="M149.593 98.0445C145.069 98.0445 140.567 98.0445 136.043 98.0445C135.656 98.0445 135.656 98.6558 136.043 98.6558C140.567 98.6558 145.069 98.6558 149.593 98.6558C149.98 98.6558 149.98 98.0445 149.593 98.0445Z" fill="#E8E8E8"/>
<path d="M146.761 94.5197C143.216 94.5197 139.691 94.5197 136.146 94.5197C135.759 94.5197 135.759 95.1309 136.146 95.1309C139.691 95.1309 143.216 95.1309 146.761 95.1309C147.148 95.1309 147.148 94.5197 146.761 94.5197Z" fill="#E8E8E8"/>
<path d="M135.86 94.8253C135.86 95.9663 135.86 97.1073 135.86 98.2483C135.86 98.6354 136.472 98.6354 136.472 98.2483C136.472 97.1073 136.472 95.9663 136.472 94.8253C136.472 94.4178 135.86 94.4178 135.86 94.8253Z" fill="#E8E8E8"/>
<path d="M276.774 140.852C282.377 140.852 287.98 140.852 293.583 140.852C293.97 140.852 293.97 140.241 293.583 140.241C287.98 140.241 282.377 140.241 276.774 140.241C276.387 140.241 276.387 140.852 276.774 140.852Z" fill="#E8E8E8"/>
<path d="M286.778 140.384C286.778 139.121 286.778 137.857 286.778 136.594C286.778 136.207 286.167 136.207 286.167 136.594C286.167 137.857 286.167 139.121 286.167 140.384C286.167 140.771 286.778 140.771 286.778 140.384Z" fill="#E8E8E8"/>
<path d="M286.635 136.818C291.423 136.818 296.211 136.818 301.019 136.818C301.407 136.818 301.407 136.207 301.019 136.207C296.231 136.207 291.443 136.207 286.635 136.207C286.227 136.207 286.227 136.818 286.635 136.818Z" fill="#E8E8E8"/>
<path d="M300.694 136.676C300.694 137.755 300.694 138.835 300.694 139.915C300.694 140.302 301.306 140.302 301.306 139.915C301.306 138.835 301.306 137.755 301.306 136.676C301.306 136.268 300.694 136.268 300.694 136.676Z" fill="#E8E8E8"/>
<path d="M293.176 140.771C295.702 140.771 298.229 140.771 300.776 140.771C301.163 140.771 301.163 140.16 300.776 140.16C298.249 140.16 295.723 140.16 293.176 140.16C292.768 140.16 292.768 140.771 293.176 140.771Z" fill="#E8E8E8"/>
<path d="M276.142 140.873C276.142 141.851 276.142 142.808 276.142 143.786C276.142 144.174 276.753 144.174 276.753 143.786C276.753 142.808 276.753 141.851 276.753 140.873C276.753 140.486 276.142 140.465 276.142 140.873Z" fill="#E8E8E8"/>
<path d="M276.53 144.398C281.827 144.398 287.145 144.398 292.442 144.398C292.83 144.398 292.83 143.786 292.442 143.786C287.145 143.786 281.827 143.786 276.53 143.786C276.142 143.786 276.142 144.398 276.53 144.398Z" fill="#E8E8E8"/>
<path d="M292.3 140.628C292.3 141.729 292.3 142.829 292.3 143.949C292.3 144.337 292.911 144.337 292.911 143.949C292.911 142.849 292.911 141.749 292.911 140.628C292.911 140.241 292.3 140.241 292.3 140.628Z" fill="#E8E8E8"/>
<path d="M278.383 131.887C283.518 131.887 288.672 131.887 293.807 131.887C294.194 131.887 294.194 131.276 293.807 131.276C288.672 131.276 283.518 131.276 278.383 131.276C277.996 131.276 277.996 131.887 278.383 131.887Z" fill="#E8E8E8"/>
<path d="M293.502 131.826C293.502 133.395 293.502 134.944 293.502 136.513C293.502 136.9 294.113 136.9 294.113 136.513C294.113 134.944 294.113 133.395 294.113 131.826C294.113 131.419 293.502 131.419 293.502 131.826Z" fill="#E8E8E8"/>
<path d="M278.24 131.663C278.24 133.11 278.24 134.577 278.24 136.023C278.24 136.411 278.851 136.411 278.851 136.023C278.851 134.577 278.851 133.11 278.851 131.663C278.851 131.276 278.24 131.276 278.24 131.663Z" fill="#E8E8E8"/>
<path d="M278.953 136.655C282.58 136.655 286.227 136.655 289.854 136.655C290.241 136.655 290.241 136.044 289.854 136.044C286.227 136.044 282.58 136.044 278.953 136.044C278.566 136.044 278.566 136.655 278.953 136.655Z" fill="#E8E8E8"/>
<path d="M108.722 195.722C112.063 195.722 115.405 195.722 118.746 195.722C119.134 195.722 119.134 195.111 118.746 195.111C115.405 195.111 112.063 195.111 108.722 195.111C108.335 195.111 108.335 195.722 108.722 195.722Z" fill="#161616"/>
<path d="M83.0286 195.763C112.185 195.763 141.321 195.763 170.478 195.763C199.472 195.763 228.486 195.763 257.479 195.763C273.84 195.763 290.202 195.763 306.563 195.763C307.357 195.763 307.357 194.54 306.563 194.54C277.406 194.54 248.27 194.54 219.113 194.54C190.12 194.54 161.106 194.54 132.112 194.54C115.751 194.54 99.3897 194.54 83.0286 194.54C82.234 194.54 82.234 195.763 83.0286 195.763Z" fill="#161616"/>
<path d="M267.504 199.879C281.644 199.879 295.764 199.879 309.904 199.879C310.699 199.879 310.699 198.656 309.904 198.656C295.764 198.656 281.644 198.656 267.504 198.656C266.729 198.656 266.729 199.879 267.504 199.879Z" fill="#161616"/>
<path d="M122.087 215.282C137.939 215.282 153.77 215.282 169.622 215.282C170.417 215.282 170.417 214.06 169.622 214.06C153.77 214.06 137.939 214.06 122.087 214.06C121.293 214.06 121.293 215.282 122.087 215.282Z" fill="#161616"/>
<path d="M36.2678 209.312C46.8425 209.312 57.4171 209.312 67.9917 209.312C68.7863 209.312 68.7863 208.09 67.9917 208.09C57.4171 208.09 46.8425 208.09 36.2678 208.09C35.4732 208.09 35.4732 209.312 36.2678 209.312Z" fill="#161616"/>
<path d="M74.6741 203.75C86.2675 203.75 97.8608 203.75 109.454 203.75C110.249 203.75 110.249 202.527 109.454 202.527C97.8608 202.527 86.2675 202.527 74.6741 202.527C73.8795 202.527 73.8795 203.75 74.6741 203.75Z" fill="#161616"/>
<path d="M67.2171 187.246C82.8651 178.668 97.8 168.827 112.409 158.579C127.038 148.31 141.402 137.633 156.011 127.323C164.202 121.557 172.474 115.893 180.91 110.494C181.236 110.29 180.93 109.76 180.604 109.964C165.547 119.601 151.04 130.054 136.553 140.526C122.087 150.999 107.621 161.513 92.6451 171.231C84.2506 176.672 75.7135 181.888 66.9319 186.696C66.5651 186.9 66.8707 187.43 67.2171 187.246Z" fill="#161616"/>
<path d="M55.8881 183.049C54.6656 183.721 53.8506 184.597 53.4228 185.066C52.7708 185.779 52.3225 186.248 51.9761 186.961C51.4464 188.102 51.5075 189.386 51.6705 191.912C51.7928 193.787 51.915 193.603 51.8335 194.031C51.3853 196.354 48.8384 196.782 48.8995 198.351C48.9403 199.329 49.9183 200.123 50.7536 200.408C52.0373 200.857 53.5858 200.286 54.5026 198.962C53.5246 199.451 52.0984 200.388 51.2019 202.059C50.8759 202.67 50.448 203.465 50.7333 203.852C51.2223 204.524 53.4431 203.73 55.4195 202.874C55.3176 203.342 55.2973 203.913 55.6233 204.32C56.4179 205.319 58.761 204.524 59.3723 204.32C60.065 204.076 60.1669 203.954 63.2843 201.998C64.9143 200.979 65.4848 200.633 66.422 199.94C67.2166 199.349 67.8279 198.84 68.2761 198.452C69.7431 198.493 71.5158 198.412 73.4718 198.045C77.1596 197.332 79.9918 195.885 81.8051 194.744C81.9478 195.335 82.07 195.946 82.2126 196.537C80.44 197.637 79.0749 198.452 78.1376 199.003C77.5468 199.349 76.9355 199.716 76.9966 199.981C77.0985 200.368 78.484 200.347 79.3601 200.347C80.3381 200.347 81.1531 200.225 81.7236 200.144C81.7644 200.286 81.907 200.673 82.2941 200.857C82.8646 201.162 83.5981 200.816 83.5778 200.755C83.5778 200.714 83.2721 200.714 83.2721 200.694C83.2721 200.653 85.493 200.653 87.0211 200.531C88.3048 200.429 90.1793 200.184 92.4816 199.451C92.8688 197.882 92.9503 196.659 92.9503 195.804C92.9503 195.172 92.9095 194.846 93.0114 194.214C93.1948 192.972 93.5819 192.564 93.7856 191.647C93.9283 191.036 93.969 190.119 93.5819 188.917C94.2543 188.652 94.7025 188.285 94.9674 188.041C95.0285 187.98 96.414 186.635 96.251 184.801C96.2103 184.414 96.1695 183.905 95.8435 183.721C95.3138 183.436 94.3969 184.17 93.9486 184.699C93.154 185.616 93.1133 186.757 93.1336 187.267C92.5835 186.411 91.4833 184.944 89.5884 184.027C88.8345 183.66 88.0806 183.436 87.2656 183.314C83.4351 182.662 78.9323 183.986 76.1001 185.005C72.3919 186.35 70.6193 187.511 68.3373 187.124C67.6445 187.002 66.1368 186.737 65.0976 185.575C64.6901 185.127 64.6494 184.862 64.1196 184.231C63.9363 184.007 62.9786 182.886 61.7561 182.336C59.2704 181.195 56.4586 182.743 55.8881 183.049Z" fill="white"/>
<path d="M66.3207 186.737C65.8521 187.817 65.2001 188.795 64.3851 189.671C64.1202 189.956 64.5481 190.384 64.813 190.099C65.6687 189.202 66.3411 188.183 66.8301 187.042C67.0135 186.676 66.4837 186.37 66.3207 186.737Z" fill="#EC615B"/>
<path d="M66.6055 186.981C66.1369 188.285 65.4238 189.426 64.4662 190.404C64.2013 190.69 64.6292 191.117 64.894 190.832C65.9332 189.773 66.687 188.53 67.1964 187.144C67.3187 186.778 66.7278 186.615 66.6055 186.981Z" fill="#EC615B"/>
<path d="M56.5611 187.837C56.9482 190.323 57.3149 192.89 58.5171 195.152C59.3728 196.782 61.1658 198.33 63.0811 197.332C64.9759 196.333 65.2408 193.888 65.1186 191.973C64.9759 189.875 64.2424 187.857 62.7143 186.37C62.4291 186.105 62.0012 186.533 62.2864 186.798C63.5701 188.061 64.2628 189.732 64.4666 191.505C64.6703 193.318 64.6092 195.946 62.6939 196.843C60.3712 197.902 58.9246 194.846 58.3541 193.135C57.7428 191.362 57.4576 189.528 57.1927 187.674C57.0908 187.287 56.4999 187.45 56.5611 187.837Z" fill="#161616"/>
<path d="M55.7859 182.723C53.4835 184.333 51.3849 186.411 51.0792 189.345C51.0181 190.038 51.0589 190.73 51.2219 191.382C51.4664 192.34 51.9961 193.135 51.4256 194.113C50.5291 195.661 49.2455 197.108 48.186 198.554C47.9619 198.88 48.4916 199.186 48.7157 198.86C49.7141 197.495 50.7532 196.15 51.7109 194.765C52.5259 193.603 52.3017 192.829 51.9146 191.525C50.8144 188 53.4427 185.087 56.1119 183.232C56.4175 183.029 56.1119 182.499 55.7859 182.723Z" fill="#161616"/>
<path d="M48.1663 199.084C49.0221 199.858 49.9593 200.694 51.1615 200.816C52.2617 200.918 53.3212 200.327 54.177 199.716C56.1126 198.351 57.4981 196.415 58.3946 194.235C58.5372 193.868 57.9463 193.705 57.8037 194.072C57.0906 195.824 55.9903 197.434 54.5437 198.656C53.7287 199.329 52.6692 200.144 51.569 200.205C50.3668 200.286 49.4092 199.39 48.5942 198.636C48.309 198.391 47.8811 198.819 48.1663 199.084Z" fill="#161616"/>
<path d="M52.0782 191.871C52.3838 192.442 52.7302 192.972 53.1581 193.44C53.4229 193.746 53.8508 193.298 53.5859 193.012C53.1988 192.564 52.8728 192.075 52.6079 191.566C52.4042 191.219 51.8948 191.525 52.0782 191.871Z" fill="#161616"/>
<path d="M49.1039 198.004C49.5114 198.473 49.6336 199.064 49.5725 199.655C49.5317 200.042 50.143 200.042 50.1837 199.655C50.2652 198.901 50.0411 198.147 49.5317 197.576C49.2669 197.291 48.839 197.719 49.1039 198.004Z" fill="#161616"/>
<path d="M48.5538 198.901C48.7983 199.084 49.0224 199.288 49.2669 199.471C49.5114 199.675 49.9597 199.41 49.7559 199.104C49.5929 198.86 49.4911 198.575 49.4911 198.269C49.3077 198.33 49.1039 198.371 48.9206 198.432C48.9817 198.514 49.0428 198.595 49.0836 198.677C49.3077 199.003 49.8374 198.697 49.6133 198.371C49.5522 198.289 49.4911 198.208 49.4503 198.127C49.2873 197.902 48.8798 197.963 48.8798 198.289C48.8798 198.697 49.0021 199.084 49.2262 199.43C49.3892 199.308 49.5522 199.186 49.7152 199.064C49.4707 198.88 49.2466 198.677 49.0021 198.493C48.8798 198.391 48.6964 198.371 48.5742 198.493C48.4519 198.575 48.4316 198.799 48.5538 198.901Z" fill="#161616"/>
<path d="M60.6557 182.275C62.4079 182.703 63.5897 184.047 64.6492 185.413C65.6679 186.696 66.3607 187.389 68.0722 187.287C71.6174 187.063 74.9997 185.718 78.3615 184.699C81.8253 183.66 86.2059 182.519 89.6289 184.272C93.1742 186.085 94.4985 190.445 92.7259 193.97C92.5425 194.316 93.0723 194.622 93.2557 194.276C95.8025 189.182 92.4203 183.457 86.8783 182.866C80.5213 182.193 74.7755 185.963 68.5815 186.615C67.4202 186.737 66.4422 186.676 65.6272 185.698C65.1382 185.107 64.6899 184.475 64.1805 183.905C63.2433 182.866 62.1634 182.01 60.7779 181.664C60.4315 181.582 60.2685 182.173 60.6557 182.275Z" fill="#161616"/>
<path d="M86.6743 188.102C85.0851 189.365 83.9237 191.016 84.0459 193.135C84.1682 195.009 85.2888 196.619 86.9596 197.475C87.3059 197.658 87.6116 197.128 87.2652 196.945C85.6963 196.13 84.6368 194.602 84.6572 192.788C84.6776 190.955 85.7371 189.61 87.1022 188.53C87.4078 188.306 86.9799 187.858 86.6743 188.102Z" fill="#161616"/>
<path d="M87.0011 197.311C85.8601 197.658 84.7395 198.065 83.6392 198.554C83.028 198.84 81.5202 199.247 81.3165 200.001C80.8886 201.59 84.8414 200.959 85.4322 200.918C86.614 200.836 87.7957 200.714 88.9775 200.531C90.0166 200.368 91.4225 200.347 92.3597 199.838C93.0729 199.471 93.0117 198.677 93.0525 197.963C93.1544 196.558 93.2766 195.172 93.3785 193.766C93.4192 193.379 92.808 193.379 92.7672 193.766C92.7061 194.663 92.6246 195.539 92.5635 196.435C92.5024 197.25 92.6857 198.88 91.8911 199.349C91.341 199.675 90.3834 199.675 89.7517 199.777C88.7534 199.94 87.7754 200.082 86.7566 200.184C85.9212 200.266 85.0859 200.327 84.2505 200.347C83.8022 200.368 83.354 200.408 82.9057 200.388C82.5186 200.368 81.8666 200.51 82.1315 199.96C82.2537 199.736 83.028 199.471 83.2725 199.369C83.7411 199.145 84.2301 198.921 84.7191 198.717C85.5137 198.391 86.3287 198.126 87.1437 197.882C87.5512 197.78 87.3882 197.189 87.0011 197.311Z" fill="#161616"/>
<path d="M64.6093 193.135C64.7519 196.537 61.9605 198.819 59.2303 200.286C58.0689 200.897 53.6883 202.283 55.2368 204.361C56.6019 206.195 59.9638 204.3 61.4511 203.505C64.0184 202.14 66.2596 200.286 68.5009 198.432C68.8065 198.188 68.3786 197.76 68.073 198.004C66.1374 199.593 64.2018 201.203 62.042 202.466C60.9418 203.118 59.7804 203.689 58.5579 204.096C57.8651 204.32 56.9483 204.687 56.2555 204.341C54.8293 203.648 56.011 202.609 56.826 202.161C60.4935 200.225 65.4446 198.065 65.2205 193.114C65.2001 192.747 64.5889 192.747 64.6093 193.135Z" fill="#161616"/>
<path d="M52.7096 191.892C52.8114 191.199 53.1782 190.567 53.8098 190.241C54.1562 190.058 53.8506 189.528 53.5042 189.712C52.7299 190.119 52.2409 190.893 52.1187 191.729C52.0576 192.116 52.6484 192.279 52.7096 191.892Z" fill="#161616"/>
<path d="M55.2563 197.719C54.9303 198.33 54.3191 198.677 53.7893 199.105C53.2392 199.553 52.7094 200.042 52.2001 200.551C51.5888 201.183 50.2237 202.283 50.1626 203.241C50.0199 205.604 54.4209 203.567 55.2563 203.302C55.6231 203.18 55.4601 202.589 55.0933 202.711C54.1764 203.017 53.2799 203.343 52.3427 203.607C52.0778 203.709 51.7926 203.77 51.5277 203.791C51.0183 203.2 50.9979 202.691 51.4258 202.303C51.6296 201.957 51.9963 201.651 52.2612 201.366C52.8724 200.714 53.5244 200.103 54.2172 199.532C54.7877 199.064 55.4193 198.697 55.7657 198.025C55.9694 197.678 55.4397 197.373 55.2563 197.719Z" fill="#161616"/>
<path d="M68.4388 198.656C74.1642 198.677 79.7877 196.904 84.4535 193.583C84.7795 193.359 84.4739 192.829 84.1479 193.053C79.5635 196.313 74.0827 198.065 68.4388 198.045C68.0517 198.025 68.0517 198.636 68.4388 198.656Z" fill="#161616"/>
<path d="M81.2962 195.029C81.4184 195.376 81.5203 195.702 81.6426 196.048C81.8259 196.558 81.9889 196.721 81.4795 197.026C80.8479 197.413 80.094 197.699 79.4217 198.025C78.7289 198.351 78.0362 198.656 77.3638 199.023C77.0378 199.186 76.7322 199.369 76.5895 199.716C75.856 201.672 80.6645 200.571 81.3777 200.347C81.7444 200.225 81.5814 199.634 81.2147 199.756C80.6646 199.94 80.094 200.082 79.5235 200.144C79.1568 200.184 78.1381 200.408 77.7713 200.205C76.7933 199.655 78.3622 199.206 78.6882 199.043C79.1976 198.799 79.7069 198.534 80.2367 198.289C80.8072 198.004 82.1927 197.678 82.4576 197.047C82.7021 196.476 82.05 195.376 81.8667 194.846C81.7648 194.5 81.1739 194.663 81.2962 195.029Z" fill="#161616"/>
<path d="M93.4191 187.185C93.3987 186.39 93.5414 185.637 93.9692 184.944C94.1526 184.659 94.4175 184.271 94.7435 184.129C96.455 183.416 96.1494 185.025 96.0067 185.596C95.64 186.9 94.6212 187.959 93.5006 188.652C93.1542 188.856 93.4802 189.386 93.8062 189.182C94.9065 188.53 95.803 187.593 96.3531 186.411C96.6995 185.637 97.0458 184.496 96.3735 183.803C95.7622 183.171 94.7842 183.334 94.1526 183.823C93.1542 184.597 92.7875 185.983 92.8282 187.205C92.8282 187.572 93.4395 187.593 93.4191 187.185Z" fill="#161616"/>
<path d="M55.9899 183.416C57.3347 182.519 59.474 181.602 61.0429 182.417C61.3893 182.601 61.6949 182.071 61.3485 181.888C59.5555 180.95 57.2328 181.867 55.6843 182.886C55.3583 183.09 55.6639 183.619 55.9899 183.416Z" fill="#161616"/>
<path opacity="0.09" d="M62.7549 186.329C63.3661 186.574 64.9146 187.267 66.0149 188.937C66.4835 189.65 67.6449 191.423 66.9929 193.42C66.402 195.213 64.7313 196.007 64.3441 196.17C64.609 195.6 64.9758 194.683 65.0573 193.522C65.1591 192.055 64.7924 190.954 64.3849 189.752C64.0996 188.876 63.6106 187.674 62.7549 186.329Z" fill="#6D6C6C"/>
<path opacity="0.13" d="M56.6424 192.707C56.0719 194.928 55.0124 196.374 54.4419 197.148C53.2601 198.758 51.9357 199.838 50.917 200.51C51.6912 200.408 52.8119 200.123 53.9732 199.43C54.2992 199.227 55.7662 198.351 56.8869 196.517C57.4981 195.518 57.8037 194.602 57.9667 193.97C57.6204 192.055 57.2944 190.139 56.948 188.204C57.0702 189.202 57.1314 190.812 56.6424 192.707Z" fill="#6D6C6C"/>
<path opacity="0.07" d="M91.891 185.779C92.0743 186.737 92.2781 188.224 91.9928 190.017C91.5038 193.196 89.8331 195.274 89.0792 196.191C86.6953 199.104 83.741 200.266 82.3555 200.734C85.5747 200.633 88.1827 200.347 90.098 200.062C91.402 199.879 92.2373 199.716 92.7467 199.043C93.6025 197.902 92.5837 196.68 93.0523 193.95C93.358 192.095 93.9081 191.973 93.9692 190.628C94.0303 189.406 93.6636 187.776 91.891 185.779Z" fill="#6D6C6C"/>
<path opacity="0.14" d="M81.7646 195.091C81.9073 195.315 82.3759 196.069 82.1314 196.782C82.0703 196.945 81.9073 197.312 80.9496 197.801C79.3196 198.656 78.4028 198.31 77.6285 199.186C77.5674 199.247 77.0376 199.858 77.221 200.266C77.4044 200.653 78.2194 200.612 78.9121 200.572C79.5845 200.531 80.5421 200.388 81.6628 199.96C82.3148 199.532 83.1094 199.064 84.067 198.636C85.1265 198.167 86.1045 197.862 86.9195 197.658C86.838 197.393 86.6546 197.006 86.349 196.578C85.7989 195.845 85.2895 195.743 84.8209 195.091C84.6171 194.805 84.3523 194.337 84.2504 193.603C83.415 194.113 82.5796 194.602 81.7646 195.091Z" fill="#6D6C6C"/>
<path opacity="0.25" d="M95.8638 183.884C95.8231 184.414 95.7008 185.209 95.3544 186.085C94.7432 187.654 93.8263 188.489 93.9689 188.632C94.0912 188.754 94.9877 188.204 95.5582 187.409C96.0268 186.737 96.1491 186.085 96.1694 185.881C96.3121 184.924 96.0064 184.17 95.8638 183.884Z" fill="#6D6C6C"/>
<path d="M223.432 181.582C228.036 185.902 232.621 190.241 237.226 194.561C231.847 205.502 229.687 211.289 230.746 211.941C232.05 212.756 238.367 205.563 249.715 190.323C241.891 184.618 234.067 178.913 226.243 173.188C225.306 175.999 224.369 178.791 223.432 181.582Z" fill="#191919"/>
<path d="M203.708 118.501C201.997 121.109 202.975 123.493 203.953 132.499C204.951 141.627 204.116 140.669 204.931 146.985C206.316 157.662 209.373 165.384 211.818 171.435C211.818 171.435 215.261 180.013 222.005 187.898C222.189 188.122 222.616 188.571 223.228 188.998C223.839 189.426 225.143 190.323 226.671 190.099C228.281 189.875 229.503 188.509 229.992 187.267C230.542 185.861 229.89 185.209 230.603 184.068C231.133 183.253 231.602 183.375 232.947 182.356C233.884 181.623 235.086 180.706 235.656 179.157C236.288 177.405 235.799 175.816 235.656 175.347C235.229 174.002 234.414 173.147 234.189 172.882C233.191 171.802 231.643 168.766 228.546 162.694C226.141 158.008 222.372 147.393 221.17 134.088C220.11 122.27 221.944 118.093 218.582 115.547C214.609 112.531 206.541 114.181 203.708 118.501Z" fill="white"/>
<path d="M220.273 122.821C220.09 129.911 220.966 136.981 222.494 143.909C223.981 150.632 225.897 157.417 228.545 163.774C229.89 167.034 231.561 170.152 233.741 172.923C233.985 173.228 234.413 172.8 234.169 172.495C230.094 167.36 227.975 161.024 226.06 154.85C223.981 148.187 222.331 141.382 221.475 134.434C221.007 130.583 220.803 126.692 220.905 122.821C220.905 122.413 220.293 122.413 220.273 122.821Z" fill="#161616"/>
<path d="M203.79 131.826C203.831 142.727 205.277 153.689 208.68 164.08C210.351 169.174 212.49 174.145 215.159 178.791C216.504 181.154 217.991 183.457 219.621 185.657C220.987 187.511 222.596 189.569 224.96 190.16C227.14 190.71 229.32 189.834 230.176 187.695C231.052 185.474 230.461 182.58 232.295 180.787C232.58 180.502 232.152 180.074 231.867 180.36C230.461 181.725 230.379 183.701 230.094 185.514C229.952 186.411 229.789 187.348 229.3 188.122C228.485 189.467 226.916 189.915 225.428 189.63C222.759 189.121 221.027 186.574 219.56 184.516C218.114 182.479 216.769 180.36 215.526 178.179C210.493 169.255 207.376 159.333 205.766 149.227C204.85 143.481 204.422 137.654 204.401 131.826C204.401 131.419 203.79 131.419 203.79 131.826Z" fill="#161616"/>
<path d="M233.252 172.352C234.903 174.308 236.186 176.855 235.31 179.443C234.862 180.808 233.843 181.317 232.723 182.03C231.745 182.662 230.93 183.497 230.257 184.455C230.033 184.781 230.563 185.087 230.787 184.761C231.358 183.986 232.01 183.253 232.804 182.703C233.314 182.356 233.884 182.091 234.393 181.725C235.351 181.032 235.881 179.952 236.085 178.811C236.533 176.203 235.31 173.86 233.68 171.904C233.436 171.619 233.008 172.067 233.252 172.352Z" fill="#161616"/>
<path opacity="0.16" d="M204.177 131.358C204.136 134.047 204.218 136.859 204.422 139.813C205.155 150.225 207.376 159.251 209.923 166.627C209.923 166.627 213.122 175.775 217.38 182.173C217.849 182.866 218.745 184.027 220.559 186.329C222.433 188.734 222.983 189.324 223.982 189.752C224.124 189.813 226.671 190.873 228.383 189.63C228.851 189.304 229.218 188.509 229.972 186.941C230.746 185.331 231.133 184.475 231.317 183.273C232.315 183.232 233.049 182.682 233.15 182.051C233.273 181.276 232.376 180.624 232.295 180.584C231.072 179.748 229.381 180.441 228.627 180.584C224.899 181.256 220.233 172.372 218.827 169.683C213.02 158.416 210.106 152.792 208.048 146.557C206.846 142.706 205.359 137.572 204.177 131.358Z" fill="#6D6C6C"/>
<path opacity="0.13" d="M206.867 155.115C207.05 155.054 207.376 155.971 210.534 162.328C216.688 174.695 218.155 176.488 219.724 177.874C221.598 179.545 224.96 181.827 230.746 182.764C230.808 183.131 231.541 187.165 229.157 188.998C228.118 189.813 226.916 189.854 226.59 189.854C222.902 189.977 219.072 184.944 215.689 178.954C209.108 167.299 206.195 155.339 206.867 155.115Z" fill="#6D6C6C"/>
<path d="M178.586 182.845C175.856 188.55 173.146 194.235 170.416 199.94C158.374 198.147 152.18 197.862 151.875 199.064C151.487 200.551 160.289 204.382 178.24 210.535C181.296 201.346 184.352 192.157 187.388 182.947C184.475 182.927 181.541 182.886 178.586 182.845Z" fill="#191919"/>
<path d="M202.812 116.627C200.713 118.42 200.102 120.335 198.411 124.247C195.803 130.257 192.848 136.125 190.2 142.136C184.923 154.117 183.211 156.765 179.218 166.178C176.915 171.598 176.936 171.985 175.693 174.247C174.409 176.57 173.085 178.526 172.168 181.867C171.618 183.864 171.495 185.351 172.025 186.859C172.229 187.45 172.861 189.304 174.511 189.936C175.57 190.343 176.65 190.099 177.873 189.793C178.871 189.549 179.666 189.202 180.216 188.917C180.583 189.386 181.235 190.078 182.274 190.527C184.209 191.403 186.064 190.812 186.96 190.527C187.49 190.364 189.466 189.671 190.913 187.735C191.911 186.411 192.196 185.087 192.38 184.373C193.113 181.338 194.621 178.546 195.599 175.571C196.129 173.941 197.148 171.456 203.953 161.513C211.288 150.795 211.655 151.427 215.241 145.539C219.132 139.141 221.312 135.636 222.27 130.298C223.044 125.979 224.185 119.642 220.395 115.893C216.096 111.533 207.396 112.674 202.812 116.627Z" fill="white"/>
<path d="M222.372 120.579C223.656 132.315 217.299 142.971 210.636 152.059C207.254 156.663 203.688 161.125 200.611 165.914C197.433 170.844 194.968 176.142 192.95 181.643C191.932 184.434 191.28 188.02 188.529 189.691C186.227 191.077 183.211 190.975 181.072 189.345C180.766 189.1 180.461 189.63 180.766 189.875C184.413 192.625 189.609 191.097 191.565 187.104C192.849 184.475 193.602 181.541 194.682 178.831C195.905 175.795 197.29 172.8 198.88 169.948C204.87 159.292 213.876 150.592 219.173 139.508C221.985 133.599 223.717 127.12 222.983 120.559C222.942 120.192 222.331 120.172 222.372 120.579Z" fill="#161616"/>
<path d="M202.486 114.793C196.903 126.997 191.321 139.222 185.718 151.427C182.906 157.601 180.074 163.754 177.262 169.927C175.938 172.841 174.552 175.734 173.268 178.668C172.25 180.971 171.272 183.558 171.659 186.105C171.985 188.163 173.268 190.343 175.53 190.506C177.16 190.629 178.81 189.854 180.318 189.365C182.091 188.795 183.884 188.204 185.656 187.633C186.023 187.511 185.86 186.92 185.493 187.043C184.088 187.491 182.702 187.939 181.296 188.408C179.829 188.876 178.362 189.467 176.854 189.793C173.9 190.404 172.27 187.878 172.168 185.229C172.066 182.295 173.533 179.463 174.715 176.875C176.019 174.043 177.303 171.211 178.607 168.359C183.802 157.01 188.998 145.661 194.173 134.312C197.107 127.894 200.041 121.476 202.975 115.078C203.179 114.732 202.649 114.426 202.486 114.793Z" fill="#161616"/>
<path d="M180.236 189.488C180.44 189.61 180.644 189.752 180.827 189.895C180.949 189.997 181.133 190.017 181.255 189.895C181.357 189.793 181.377 189.569 181.255 189.467C181.031 189.284 180.786 189.121 180.542 188.958C180.216 188.754 179.91 189.284 180.236 189.488Z" fill="#161616"/>
<path opacity="0.09" d="M213.367 113C210.901 114.222 211.655 119.194 211.289 124.634C211.024 128.648 210.351 129.87 200.999 151.203C193.134 169.153 192.197 171.517 189.121 176.183C185.31 181.949 181.48 186.289 178.709 189.162C179.361 189.121 180.013 189.08 180.665 189.039C181.093 189.447 181.786 189.977 182.743 190.384C183.212 190.588 185.31 191.484 187.511 190.751C189.671 190.038 190.73 188.163 191.545 186.717C192.768 184.536 193.094 182.601 193.257 181.704C193.705 179.32 195.111 176.611 197.902 171.17C201.672 163.856 205.339 160.861 212.104 150.857C217.646 142.625 220.702 138 222.148 131.032C223.31 125.469 222.963 120.681 222.515 117.564C219.52 114.732 215.69 111.838 213.367 113Z" fill="#6D6C6C"/>
<path opacity="0.16" d="M222.168 127.323C221.822 127.181 220.11 131.296 216.667 137.368C211.919 145.681 210.269 146.455 203.932 155.971C197.535 165.588 197.637 167.197 190.954 177.018C187.49 182.112 184.434 186.146 182.376 188.774C181.785 189.732 181.887 190.18 182.009 190.364C182.518 191.24 185.086 190.649 186.288 190.364C187.836 189.997 188.631 189.813 189.466 189.263C191.239 188.102 191.626 186.289 192.889 182.54C193.562 180.522 194.417 178.566 195.09 176.549C196.557 172.23 198.635 169.194 202.058 164.304C213.794 147.617 213.753 148.554 215.77 144.846C220.599 136.044 222.657 127.527 222.168 127.323Z" fill="#6D6C6C"/>
<path d="M164.263 55.8071C163.734 56.7036 163.632 57.5594 163.591 57.9465C163.387 59.6173 163.958 60.9213 164.202 61.4306C165.547 64.3443 168.624 65.3426 169.174 65.5056C169.541 66.8708 169.907 68.2359 170.315 69.6214C171.232 72.861 172.189 76.0395 173.167 79.1365C174.471 78.9531 175.775 78.7698 177.079 78.5864C176.712 76.8545 176.264 75.469 175.938 74.5521C174.96 71.7404 174.043 70.3345 173.249 67.2783C173.045 66.4633 172.902 65.7705 172.821 65.3426C173.147 65.1185 173.595 64.7314 174.023 64.1813C175.714 61.9808 175.307 59.2913 175.225 58.7208C175.083 57.8446 174.858 56.2554 173.514 54.9106C171.802 53.1788 169.602 53.138 169.276 53.138C167.299 53.0769 165.262 54.0956 164.263 55.8071Z" fill="#5222D0"/>
<path d="M165.445 57.4575C165.363 57.702 165.139 58.5781 165.383 59.658C165.75 61.2473 167.013 62.6939 168.705 63.1829C170.029 63.57 172.046 63.5293 173.126 62.2049C173.88 61.288 173.859 60.1878 173.839 59.169C173.819 58.028 173.778 56.2758 172.392 55.1348C170.722 53.7493 168.501 54.442 168.358 54.4828C166.912 54.9514 165.832 56.1128 165.445 57.4575Z" fill="white"/>
<path d="M169.133 70.3141C169.072 70.6198 168.99 71.068 168.99 71.5774C168.99 71.8219 168.99 72.4943 169.235 73.513C169.398 74.1446 169.5 74.3076 170.172 75.9376C170.905 77.7103 171.048 78.1993 171.598 78.4234C171.965 78.5864 172.352 78.5253 172.597 78.4641C172.006 77.5269 172.046 76.9768 172.189 76.6508C172.311 76.3451 172.515 76.284 172.637 75.8969C172.678 75.7543 172.739 75.4894 172.515 74.5725C172.291 73.676 172.189 73.676 172.128 73.1463C172.046 72.535 172.189 72.5146 172.108 71.9441C172.087 71.8423 172.006 71.2921 171.659 70.6605C171.333 70.09 171.13 69.7233 170.722 69.601C170.192 69.4788 169.601 69.7844 169.133 70.3141Z" fill="white"/>
<path d="M174.207 70.0696C173.697 70.579 172.984 71.5366 173.269 72.046C173.514 72.4535 174.37 72.4943 174.797 72.5146C175.103 72.535 175.348 72.5146 175.531 72.4943C175.612 72.7184 175.694 72.9221 175.755 73.1463C176.326 74.817 176.815 76.4674 177.222 78.0974C177.283 78.3215 177.344 78.5456 177.385 78.7494C177.202 79.0143 176.855 79.4218 176.305 79.7478C175.551 80.1756 174.838 80.2368 174.492 80.2368C174.879 81.174 175.449 82.3558 176.305 83.6394C176.55 84.0061 177.263 85.086 178.445 86.3696C179.565 87.5921 180.686 88.8146 182.479 89.8741C184.903 91.3208 187.185 91.6468 188.449 91.8098C190.344 92.0543 191.831 91.9524 192.585 91.8709C193.237 91.8098 195.824 91.4838 198.82 89.9556C201.611 88.5294 203.302 86.8179 204.586 85.4935C205.584 84.4748 207.296 82.6614 208.783 79.7885C209.802 77.7918 210.189 76.3044 210.922 73.3908C211.961 69.275 212.471 67.2171 211.452 66.2799C210.596 65.5056 209.089 65.8316 207.866 66.1169C205.849 66.5651 204.484 67.645 202.833 68.9898C201.998 69.6825 201.265 70.3956 199.859 71.7811C196.884 74.7151 196.701 75.1838 195.071 76.5285C194.093 77.3435 193.298 77.8733 191.709 78.9124C188.53 81.0314 187.634 81.2148 186.941 81.2555C185.678 81.3166 184.72 80.8888 183.844 80.5016C181.236 79.3199 179.993 77.2416 179.606 76.5896C179.097 75.7135 178.709 75.0411 178.689 74.1039C178.669 73.024 179.137 72.6776 179.158 71.3533C179.178 70.579 179.198 69.4991 178.546 68.949C177.528 68.0525 175.368 68.9286 174.207 70.0696Z" fill="white"/>
<path d="M178.342 75.2245C180.257 78.5253 183.211 81.989 187.449 81.4796C187.837 81.4389 187.837 80.8276 187.449 80.8684C183.415 81.3574 180.685 78.0363 178.851 74.9189C178.668 74.5725 178.138 74.8781 178.342 75.2245Z" fill="#161616"/>
<path d="M182.988 82.2131C185.677 82.4576 188.163 81.2963 190.424 79.9923C192.768 78.6475 194.927 77.0175 196.883 75.143C200.795 71.3736 204.87 65.3019 211.125 66.4225C211.513 66.4836 211.676 65.8928 211.288 65.8316C205.726 64.8333 201.61 69.2954 198.167 72.9425C196.15 75.0819 193.97 77.0379 191.484 78.6271C188.957 80.2571 186.085 81.8668 182.988 81.6019C182.6 81.5611 182.6 82.1724 182.988 82.2131Z" fill="#161616"/>
<path d="M173.452 79.1773C176.447 84.8619 180.135 90.465 186.838 91.8913C193.012 93.2156 199.288 90.9744 203.811 86.7364C206.46 84.2506 208.497 81.1944 209.964 77.8936C210.127 77.5472 209.597 77.2212 209.434 77.588C206.969 83.0892 202.792 88.1015 197.087 90.3835C191.341 92.6655 184.516 91.932 179.952 87.5921C177.384 85.1471 175.632 81.989 173.982 78.8716C173.798 78.5049 173.269 78.8309 173.452 79.1773Z" fill="#161616"/>
<path d="M175.103 69.2139C174.064 69.6621 172.597 71.0273 173.168 72.3109C173.799 73.6964 176.041 72.4943 176.835 71.9034C177.141 71.6793 176.835 71.1495 176.53 71.3736C176.061 71.72 173.881 73.024 173.677 71.8219C173.514 70.9254 174.737 70.0493 175.429 69.7436C175.776 69.5806 175.45 69.0509 175.103 69.2139Z" fill="#161616"/>
<path d="M175.225 69.7844C175.999 69.1935 177.222 68.2563 178.2 69.112C178.995 69.8251 178.832 71.068 178.689 71.9849C178.506 73.1666 178.037 74.817 178.791 75.8765C179.015 76.2025 179.545 75.8969 179.321 75.5709C178.587 74.5318 179.259 72.6573 179.382 71.5163C179.484 70.6605 179.443 69.7844 178.954 69.0713C177.894 67.5228 176.101 68.3581 174.92 69.2546C174.614 69.4991 174.92 70.0289 175.225 69.7844Z" fill="#161616"/>
<path d="M174.879 72.4943C175.571 74.5521 176.203 76.6304 176.814 78.729C176.875 78.6068 176.957 78.4845 177.018 78.3623C175.632 78.6883 174.206 78.3419 172.902 79.0143C173.045 79.0754 173.208 79.1365 173.35 79.1976C173.106 78.3215 172.8 77.4454 172.495 76.5896C172.352 76.2229 171.761 76.3859 171.904 76.7526C172.23 77.6084 172.515 78.4845 172.76 79.3606C172.821 79.5644 173.024 79.6255 173.208 79.544C174.43 78.9124 175.877 79.2588 177.181 78.9531C177.344 78.9124 177.446 78.729 177.385 78.5864C176.773 76.4878 176.142 74.4299 175.449 72.3516C175.347 71.9441 174.756 72.1071 174.879 72.4943Z" fill="#161616"/>
<path d="M172.983 79.4014C173.88 80.8684 176.671 80.3183 177.303 78.8513C177.466 78.4845 176.936 78.1789 176.773 78.5456C176.345 79.5644 174.165 80.1756 173.493 79.0958C173.309 78.7494 172.78 79.055 172.983 79.4014Z" fill="#161616"/>
<path d="M173.534 79.5848C174.573 79.8089 175.592 79.7478 176.59 79.381C176.957 79.2384 176.794 78.6475 176.427 78.7901C175.531 79.1161 174.614 79.1773 173.697 78.9939C173.31 78.9124 173.147 79.5033 173.534 79.5848Z" fill="#161616"/>
<path d="M173.351 79.4829C174.084 78.3623 175.47 78.0566 176.611 78.729C176.957 78.9328 177.263 78.403 176.916 78.1993C175.449 77.3639 173.738 77.7714 172.801 79.1773C172.597 79.5033 173.127 79.8293 173.351 79.4829Z" fill="#161616"/>
<path d="M174.471 79.1161C174.715 78.3419 175.754 78.7698 176.243 78.9939C176.59 79.1569 176.916 78.6271 176.549 78.4641C175.673 78.0566 174.267 77.7103 173.88 78.9531C173.778 79.3403 174.369 79.5033 174.471 79.1161Z" fill="#161616"/>
<path d="M171.924 78.1585C171.394 77.8121 171.048 77.2213 171.068 76.5693C171.088 76.284 171.17 76.0191 171.292 75.7746C171.353 75.6728 171.924 74.9393 172.066 75.0411C172.372 75.2856 172.8 74.8578 172.494 74.6133C171.72 74.002 170.783 75.2449 170.579 75.9173C170.233 76.9971 170.701 78.077 171.618 78.6883C171.944 78.892 172.25 78.3623 171.924 78.1585Z" fill="#161616"/>
<path d="M172.108 76.9768C173.005 76.4674 173.148 75.2653 172.353 74.5929C172.047 74.3484 171.619 74.7763 171.925 75.0208C172.414 75.4283 172.373 76.121 171.803 76.447C171.456 76.6508 171.762 77.1805 172.108 76.9768Z" fill="#161616"/>
<path d="M171.232 78.3419C171.68 78.7901 172.393 78.892 172.923 78.5456C173.249 78.3419 172.943 77.8121 172.617 78.0159C172.312 78.2196 171.925 78.1789 171.66 77.914C171.395 77.6288 170.967 78.0566 171.232 78.3419Z" fill="#161616"/>
<path d="M170.743 76.3044C170.376 75.7543 170.254 75.1226 170.396 74.4706C170.559 73.6964 171.252 72.7591 172.067 73.5538C172.352 73.839 172.78 73.3908 172.495 73.1259C171.7 72.3313 170.722 72.5554 170.152 73.4926C169.561 74.4503 169.622 75.6931 170.233 76.61C170.437 76.936 170.967 76.6304 170.743 76.3044Z" fill="#161616"/>
<path d="M170.029 74.8985C169.988 74.6133 169.886 74.3891 169.744 74.1243C169.479 73.6353 169.418 73.2685 169.56 72.7184C169.805 71.7811 170.6 71.0884 171.557 71.6589C171.904 71.8627 172.209 71.3329 171.863 71.1292C170.987 70.6198 169.866 70.8235 169.316 71.6996C169.031 72.1479 168.847 72.7388 168.847 73.2685C168.827 73.9409 169.336 74.4095 169.438 75.0615C169.499 75.4486 170.09 75.2857 170.029 74.8985Z" fill="#161616"/>
<path d="M169.438 71.9238C169.112 71.4551 169.092 70.8031 169.499 70.3753C169.907 69.9474 170.559 69.927 171.048 70.2326C171.374 70.4364 171.679 69.9066 171.353 69.7029C170.64 69.2546 169.662 69.3361 169.071 69.9474C168.48 70.5586 168.44 71.557 168.908 72.2498C169.132 72.5554 169.662 72.2498 169.438 71.9238Z" fill="#161616"/>
<path d="M171.334 71.5774C171.782 71.8015 171.945 72.4331 171.599 72.8203C171.334 73.1055 171.762 73.5538 172.027 73.2481C172.618 72.5961 172.455 71.4551 171.64 71.0476C171.293 70.8846 170.967 71.394 171.334 71.5774Z" fill="#161616"/>
<path d="M170.804 70.253C171.191 70.4364 171.415 70.8439 171.333 71.2921C171.252 71.6793 171.843 71.8423 171.924 71.4551C172.067 70.7624 171.741 70.0493 171.109 69.7436C170.763 69.5399 170.457 70.0696 170.804 70.253Z" fill="#161616"/>
<path d="M172.026 73.8186C172.169 74.0428 172.21 74.328 172.087 74.5929C172.026 74.7355 172.047 74.9189 172.189 75.0208C172.312 75.1023 172.536 75.0615 172.617 74.9189C172.821 74.4707 172.801 73.9613 172.556 73.5334C172.352 73.1666 171.823 73.4723 172.026 73.8186Z" fill="#161616"/>
<path d="M169.01 65.7501C169.255 67.1356 169.56 68.5008 169.948 69.8659C170.049 70.253 170.64 70.09 170.538 69.7029C170.151 68.3581 169.846 66.9726 169.601 65.5871C169.54 65.2 168.949 65.363 169.01 65.7501Z" fill="#161616"/>
<path d="M172.434 65.4241C172.923 67.0541 173.412 68.6638 173.88 70.2938C174.002 70.6605 174.573 70.5179 174.471 70.1308C173.982 68.5008 173.493 66.8911 173.024 65.2611C172.902 64.874 172.311 65.037 172.434 65.4241Z" fill="#161616"/>
<path d="M169.071 65.1593C166.484 64.9148 164.12 61.614 163.753 59.2098C163.305 56.2961 166.015 53.8919 168.705 53.3825C174.471 52.323 177.527 62.429 172.596 65.0778C172.25 65.2611 172.555 65.7909 172.902 65.6075C177.181 63.3051 176.019 56.0109 172.433 53.627C168.114 50.7541 161.634 55.3793 163.427 60.3915C164.263 62.7143 166.443 65.5056 169.071 65.7501C169.458 65.8113 169.458 65.2 169.071 65.1593Z" fill="#161616"/>
<path d="M169.051 63.0199C167.075 62.5716 165.526 60.8398 165.547 58.7615C165.567 56.561 167.38 54.605 169.601 54.5235C172.27 54.442 173.574 57.0296 173.534 59.3931C173.513 60.7583 173.31 62.0623 171.904 62.6124C170.824 63.0199 169.642 63.3866 168.501 62.9384C168.134 62.7958 167.971 63.3866 168.338 63.5293C169.642 64.0386 171.15 63.6108 172.393 63.0606C173.574 62.5309 173.921 61.5936 174.084 60.3508C174.41 57.6409 173.35 54.3198 170.233 53.953C167.666 53.6474 165.384 55.6441 165.017 58.1503C164.65 60.6971 166.464 63.0403 168.929 63.6108C169.275 63.6923 169.438 63.1014 169.051 63.0199Z" fill="#161616"/>
<path d="M169.703 54.2994C168.868 56.9278 168.033 59.5765 167.218 62.2049C167.095 62.5716 167.686 62.7346 167.809 62.3679C168.644 59.7395 169.479 57.0908 170.294 54.4624C170.417 54.0956 169.826 53.9326 169.703 54.2994Z" fill="#161616"/>
<path d="M170.905 57.2334C170.274 59.1283 169.581 61.0028 168.868 62.8569C168.725 63.2236 169.316 63.3866 169.459 63.0199C170.172 61.1658 170.864 59.2709 171.496 57.3964C171.618 57.0093 171.027 56.8463 170.905 57.2334Z" fill="#161616"/>
<path opacity="0.12" d="M211.248 66.3614C210.351 68.623 208.782 71.9849 206.093 75.5709C203.2 79.4625 199.919 83.8635 194.01 85.7788C192.543 86.2474 188.163 87.6125 182.906 85.9825C178.322 84.5563 175.571 81.6223 174.491 80.3386C175.001 81.7038 175.958 83.8024 177.751 85.8806C178.688 86.9605 182.132 90.8521 188.061 91.8301C188.794 91.9524 192.625 92.5433 197.087 90.8318C201.997 88.9573 204.646 85.4731 206.5 83.0078C207.804 81.2759 210.127 78.0974 211.064 73.2889C211.614 70.4364 211.472 67.9914 211.248 66.3614Z" fill="#6D6C6C"/>
<path opacity="0.21" d="M178.749 86.1863C180.277 87.1643 183.048 88.6516 186.777 89.0591C191.402 89.5685 194.906 88.1219 197.474 87.0828C202.567 84.9841 206.133 81.826 208.374 79.3606C207.6 81.1944 205.97 84.3321 202.73 87.0828C201.202 88.3868 195.925 92.8693 188.753 91.8301C183.293 91.0355 179.87 87.4699 178.749 86.1863Z" fill="#6D6C6C"/>
<path d="M207.642 64.3646C204.259 66.8708 203.016 70.2122 201.611 73.9205C199.003 80.8073 199.43 86.2881 199.716 94.9679C199.899 100.49 200.062 108.497 199.899 118.481C203.404 119.357 207.805 120.111 212.898 120.294C216.851 120.416 220.376 120.172 223.351 119.764C225.021 112.083 226.774 105.889 228.078 101.59C232.438 87.205 236.859 76.6711 232.825 68.2359C232.621 67.8284 232.418 67.482 232.193 67.1764C227.548 60.6156 214.528 59.2505 207.642 64.3646Z" fill="#EC615B"/>
<path opacity="0.15" d="M222.353 61.7159C222.088 63.2033 221.64 65.5464 220.967 68.3581C217.157 84.2506 213.327 85.1268 212.654 93.9288C211.962 102.792 215.548 105.991 212.552 112.653C210.984 116.138 208.579 118.46 206.807 119.887C209.639 120.09 212.675 120.213 215.914 120.192C218.461 120.172 220.865 120.07 223.147 119.887C224.594 113.591 225.98 108.558 227.019 105.033C227.528 103.301 228.139 101.243 229.301 97.4129C231.196 91.1374 231.685 89.5889 232.479 86.6141C233.641 82.1928 234.231 79.9311 234.354 77.6899C234.557 74.328 234.782 70.4975 232.377 67.2783C230.849 65.2204 228.751 64.1201 227.63 63.5089C225.552 62.3883 223.636 61.9196 222.353 61.7159Z" fill="#6D6C6C"/>
<path opacity="0.17" d="M230.869 89.9556C230.441 89.7926 228.261 95.5791 224.431 103.424C220.865 110.718 217.483 116.464 215.119 120.274C217.788 120.07 220.478 119.887 223.147 119.683C223.84 116.973 224.899 112.918 226.224 107.988C229.484 95.844 231.297 90.0983 230.869 89.9556Z" fill="#6D6C6C"/>
<path d="M229.382 66.2595C228.709 66.504 227.752 66.9115 226.651 67.5431C222.78 69.764 220.722 72.8202 219.459 74.654C219.459 74.654 215.201 80.848 208.64 89.161C206.602 91.7486 204.565 94.1528 202.059 96.7608C196.863 102.181 194.561 103.301 193.562 103.729C191.077 104.829 188.896 105.787 186.024 105.563C184.129 105.42 182.947 104.829 181.643 105.624C180.257 106.459 179.341 108.456 179.524 109.556C179.544 109.679 179.626 110.066 179.667 110.616C179.687 110.758 179.707 111.247 179.667 111.961C179.605 113.061 179.483 112.959 179.524 113.366C179.646 114.243 180.257 114.691 180.074 114.976C179.952 115.18 179.626 114.996 179.381 115.261C179.096 115.547 179.218 116.097 179.239 116.178C179.381 116.81 179.911 117.177 180.135 117.299C181.011 117.869 181.602 117.564 183.823 117.645C185.392 117.706 185.861 117.89 186.635 117.503C186.839 117.401 187.185 117.217 187.796 116.525C189.548 114.569 189.345 113.265 190.873 112.022C191.423 111.573 191.973 111.329 192.319 111.186C193.44 110.697 194.174 110.718 195.253 110.473C195.987 110.331 196.72 110.025 198.187 109.414C200.571 108.436 202.405 107.478 203.118 107.091C207.417 104.768 211.309 101.834 212.144 101.182C216.606 97.7796 219.459 94.9067 223.167 91.1781C225.836 88.509 228.648 85.4935 231.378 81.3981C232.214 80.1348 233.701 77.7917 234.19 74.491C234.414 73.0036 234.638 71.3328 233.783 69.6417C232.601 67.1763 230.013 66.4225 229.382 66.2595Z" fill="white"/>
<path d="M228.771 66.0761C224.92 67.2782 221.986 70.7624 219.581 73.8186C216.851 77.3027 214.386 80.9702 211.737 84.4951C208.905 88.2645 205.971 91.9524 202.772 95.4161C199.736 98.6761 196.415 101.895 192.32 103.77C189.936 104.85 187.307 105.461 184.699 105.237C183.212 105.115 181.317 104.748 180.4 106.256C180.197 106.582 180.726 106.908 180.93 106.561C181.48 105.644 182.621 105.665 183.558 105.746C184.536 105.807 185.494 105.93 186.472 105.889C188.408 105.787 190.323 105.298 192.116 104.544C195.926 102.934 199.105 100.163 201.957 97.2091C208.11 90.8521 213.163 83.5986 218.379 76.4877C219.846 74.491 221.354 72.535 223.086 70.7624C224.757 69.0509 226.652 67.4005 228.995 66.667C229.3 66.5447 229.137 65.9539 228.771 66.0761Z" fill="#161616"/>
<path d="M228.709 66.4632C232.112 65.9946 234.007 69.601 233.986 72.5146C233.966 75.4079 232.743 78.2604 231.317 80.7257C228.668 85.3509 224.818 89.3036 221.089 93.073C213.713 100.469 205.115 107.172 194.948 110.168C193.705 110.534 192.197 110.657 191.097 111.39C190.058 112.083 189.528 113.428 188.815 114.426C188.285 115.159 187.715 115.873 187.103 116.545C186.309 117.401 185.575 117.482 184.495 117.401C183.68 117.34 182.865 117.278 182.03 117.217C181.195 117.156 180.013 117.217 179.605 116.321C179.442 115.954 178.913 116.28 179.076 116.626C179.504 117.584 180.522 117.706 181.46 117.788C182.213 117.849 182.967 117.91 183.721 117.951C184.455 118.012 185.29 118.175 186.024 118.032C187.246 117.788 188.163 116.26 188.876 115.363C189.732 114.263 190.445 112.45 191.688 111.757C192.381 111.37 193.257 111.268 194.011 111.064C194.764 110.86 195.498 110.657 196.231 110.412C197.556 109.984 198.88 109.475 200.164 108.925C202.853 107.763 205.421 106.378 207.886 104.789C212.817 101.61 217.299 97.7592 221.435 93.6231C225.633 89.4259 230.054 84.923 232.703 79.5236C234.088 76.6915 235.229 73.2685 234.333 70.1307C233.62 67.6042 231.317 65.526 228.587 65.8927C228.159 65.9335 228.322 66.5244 228.709 66.4632Z" fill="#161616"/>
<path d="M179.728 109.414C179.911 108.171 183.069 108.293 183.904 108.212C185.045 108.11 186.064 107.865 186.961 107.111C187.266 106.846 186.818 106.419 186.533 106.683C185.229 107.784 183.436 107.56 181.847 107.763C181.011 107.886 179.3 108.191 179.157 109.23C179.076 109.638 179.666 109.801 179.728 109.414Z" fill="#161616"/>
<path d="M179.116 109.495C180.115 111.472 182.274 112.551 184.434 112.083C184.821 112.001 184.658 111.41 184.271 111.492C182.356 111.92 180.502 110.921 179.626 109.19C179.463 108.843 178.933 109.149 179.116 109.495Z" fill="#161616"/>
<path d="M179.401 110.066C178.994 111.125 179.462 112.307 180.359 112.959C181.378 113.713 182.702 113.631 183.884 113.428C184.271 113.366 184.108 112.776 183.721 112.837C182.804 113 181.765 113.081 180.909 112.592C180.074 112.124 179.646 111.125 179.972 110.229C180.135 109.862 179.544 109.699 179.401 110.066Z" fill="#161616"/>
<path d="M179.442 111.757C178.871 112.694 179.116 113.937 179.91 114.691C180.848 115.587 182.274 115.485 183.354 114.956C183.7 114.793 183.395 114.263 183.048 114.426C182.213 114.813 181.133 114.935 180.379 114.283C179.747 113.733 179.544 112.796 179.972 112.062C180.175 111.716 179.646 111.41 179.442 111.757Z" fill="#161616"/>
<path d="M179.707 116.402C179.299 115.75 179.85 114.935 180.624 115.221C180.991 115.363 181.154 114.772 180.787 114.63C179.524 114.161 178.525 115.628 179.198 116.708C179.381 117.034 179.911 116.728 179.707 116.402Z" fill="#161616"/>
<path d="M180.379 106.663C181.52 106.256 182.723 106.806 183.212 107.906C183.375 108.273 183.904 107.947 183.741 107.6C183.15 106.276 181.602 105.583 180.216 106.093C179.85 106.215 180.013 106.806 180.379 106.663Z" fill="#161616"/>
<path d="M180.156 106.296C179.341 106.887 179.361 108.293 180.278 108.782C180.624 108.965 180.93 108.436 180.584 108.252C180.095 107.987 179.972 107.152 180.461 106.826C180.787 106.582 180.482 106.052 180.156 106.296Z" fill="#161616"/>
<path d="M180.339 107.987C180.38 107.539 180.523 107.172 180.787 106.806C180.604 106.806 180.441 106.806 180.258 106.806C180.461 107.152 180.461 107.478 180.258 107.804C180.441 107.824 180.624 107.845 180.808 107.886C180.767 107.763 180.747 106.826 180.991 106.989C181.175 107.111 180.767 107.743 180.686 107.886C180.869 107.886 181.032 107.886 181.215 107.886C181.134 107.743 181.073 107.6 181.073 107.437C181.154 106.989 181.276 106.948 181.419 107.335C181.521 107.417 181.623 107.478 181.704 107.56C181.643 107.335 181.704 107.213 181.888 107.254C182.071 107.172 182.112 107.234 182.01 107.417C182.153 107.458 182.295 107.498 182.438 107.519C182.499 107.58 182.54 107.641 182.601 107.702C182.54 108.089 183.131 108.252 183.192 107.865C183.273 107.356 182.805 106.663 182.275 107.132C181.827 107.539 182.275 108.293 182.845 107.987C183.395 107.682 183.171 106.846 182.601 106.704C181.949 106.561 181.623 107.335 181.908 107.824C181.99 107.967 182.193 108.008 182.336 107.926C182.845 107.621 182.805 106.765 182.234 106.541C181.501 106.235 181.032 107.111 181.134 107.723C181.154 107.865 181.297 107.947 181.419 107.947C182.275 107.987 182.479 106.724 181.684 106.459C180.584 106.093 180.278 107.478 180.686 108.212C180.808 108.436 181.093 108.395 181.215 108.212C181.501 107.804 182.091 106.337 181.154 106.256C180.278 106.194 180.034 107.458 180.217 108.069C180.298 108.313 180.645 108.375 180.767 108.15C181.073 107.641 181.073 107.05 180.767 106.52C180.645 106.317 180.36 106.337 180.237 106.52C179.911 106.969 179.769 107.458 179.708 108.008C179.687 108.395 180.298 108.375 180.339 107.987Z" fill="#161616"/>
<path d="M179.83 108.66C180.869 108.843 183.395 109.047 183.66 107.539C183.721 107.152 183.131 106.989 183.069 107.376C182.886 108.415 180.706 108.191 179.993 108.069C179.606 108.008 179.443 108.599 179.83 108.66Z" fill="#161616"/>
<path d="M182.294 108.354C183.068 111.472 182.987 114.67 182.029 117.727C181.907 118.093 182.498 118.256 182.62 117.89C183.598 114.732 183.7 111.41 182.885 108.191C182.783 107.804 182.192 107.967 182.294 108.354Z" fill="#161616"/>
<path d="M182.172 108.395C182.315 109.943 182.396 111.472 182.437 113.02C182.478 114.507 182.58 116.036 182.091 117.462C181.969 117.829 182.559 117.992 182.682 117.625C183.15 116.26 183.089 114.833 183.069 113.407C183.028 111.736 182.947 110.066 182.804 108.395C182.743 108.008 182.132 108.008 182.172 108.395Z" fill="#161616"/>
<path d="M182.967 108.375C183.415 108.701 183.334 110.31 183.354 110.82C183.374 111.512 183.374 112.185 183.334 112.877C183.252 114.344 183.028 115.811 182.661 117.238C182.559 117.625 183.15 117.788 183.252 117.401C183.7 115.608 183.945 113.794 183.965 111.94C183.965 111.003 183.924 110.066 183.823 109.128C183.761 108.578 183.721 108.171 183.272 107.845C182.946 107.621 182.641 108.15 182.967 108.375Z" fill="#161616"/>
<path d="M182.824 108.212C183.089 109.862 183.17 111.512 183.048 113.163C183.028 113.55 183.639 113.55 183.659 113.163C183.781 111.451 183.7 109.74 183.415 108.049C183.354 107.661 182.763 107.824 182.824 108.212Z" fill="#161616"/>
<path d="M181.337 108.334C182.009 110.595 182.274 112.939 182.091 115.302C182.05 115.913 181.418 118.786 183.069 118.012C183.68 117.727 183.741 117.014 183.802 116.443C183.925 115.282 183.945 114.12 183.945 112.959C183.945 111.125 184.189 108.904 183.13 107.315C182.906 106.989 182.376 107.295 182.6 107.621C183.476 108.945 183.313 110.657 183.334 112.185C183.334 113.02 183.334 113.855 183.313 114.691C183.293 115.078 183.273 115.465 183.252 115.852C183.232 116.056 183.11 117.727 182.519 117.034C182.519 117.034 182.641 116.137 182.661 116.036C182.702 115.669 182.743 115.282 182.763 114.915C182.804 114.161 182.804 113.407 182.763 112.674C182.682 111.146 182.396 109.638 181.969 108.171C181.826 107.784 181.235 107.947 181.337 108.334Z" fill="#161616"/>
<path d="M182.091 108.252C182.213 109.23 182.315 110.208 182.438 111.166C182.478 111.553 183.09 111.553 183.049 111.166C182.927 110.188 182.825 109.21 182.702 108.252C182.641 107.865 182.03 107.865 182.091 108.252Z" fill="#161616"/>
<path d="M181.48 107.661C181.908 108.762 182.254 109.903 182.478 111.064C182.56 111.451 183.151 111.288 183.069 110.901C182.845 109.74 182.519 108.599 182.071 107.498C181.928 107.132 181.337 107.295 181.48 107.661Z" fill="#161616"/>
<path opacity="0.15" d="M233.049 68.4396C232.274 68.4396 232.07 72.5553 230.97 76.0598C230.013 79.0957 228.383 81.5815 221.455 88.346C211.838 97.7185 206.867 102.466 198.676 106.582C195.212 108.313 192.176 109.434 190.057 110.147C189.385 110.738 187.164 112.531 183.924 112.531C182.335 112.531 181.051 112.103 180.257 111.736C180.114 111.818 179.666 112.083 179.462 112.633C179.238 113.224 179.401 113.917 179.849 114.426C179.686 114.569 179.238 115.058 179.258 115.71C179.279 116.463 179.87 116.932 180.053 117.095C180.746 117.666 181.928 117.686 184.21 117.686C184.8 117.686 185.656 117.686 186.695 117.686C187.082 117.278 187.653 116.647 188.285 115.811C189.792 113.774 189.955 112.755 191.056 111.838C192.319 110.799 193.786 110.758 194.417 110.657C199.858 109.719 206.602 105.237 210.371 102.731C216.382 98.7372 219.805 94.9678 226.63 87.4698C226.63 87.4698 230.257 83.4763 233.069 77.3638C233.497 76.447 234.414 74.3076 234.149 71.6181C234.006 70.3345 233.578 68.46 233.049 68.4396Z" fill="#6D6C6C"/>
<path d="M224.47 47.8812C224.633 52.812 224.45 55.6034 225.285 60.31C225.673 62.5105 226.141 64.2831 226.488 65.4649C224.389 66.1372 220.864 66.9522 216.545 66.4836C213.712 66.178 211.41 65.4241 209.76 64.7314C210.514 63.3051 211.43 61.2065 211.94 58.5577C212.388 56.2554 212.388 54.2586 212.286 52.7509C210.167 51.8951 208.048 51.019 205.929 50.1632C205.746 49.0834 205.583 48.0035 205.399 46.944C204.809 46.7606 204.197 46.5772 203.606 46.3939C204.401 45.1917 205.644 43.2969 207.111 40.9334C209.862 36.4712 210.025 35.7785 211.125 34.9024C214.1 32.4981 219.56 31.8869 222.392 34.3522C224.063 35.8192 224.226 39.8535 224.47 47.8812Z" fill="white" stroke="#161616" stroke-width="0.4075" stroke-miterlimit="10"/>
<path d="M203.566 46.7402C204.687 47.0662 205.828 47.27 206.989 47.3922C207.376 47.433 207.376 46.8217 206.989 46.781C205.889 46.6587 204.789 46.455 203.729 46.1494C203.342 46.0475 203.179 46.6384 203.566 46.7402Z" fill="#161616"/>
<path d="M205.4 37.9179C206.153 37.7345 206.968 38.142 207.254 38.8755C207.396 39.2422 207.987 39.0792 207.845 38.7125C207.437 37.653 206.357 37.0621 205.257 37.327C204.849 37.4289 205.012 38.0197 205.4 37.9179Z" fill="#161616"/>
<path d="M209.984 39.8535C210.901 39.8127 211.736 40.3425 212.042 41.1982C212.164 41.565 212.755 41.402 212.633 41.0352C212.246 39.9146 211.186 39.1607 210.005 39.2218C209.597 39.2626 209.597 39.8738 209.984 39.8535Z" fill="#161616"/>
<path d="M210.188 42.4411C210.045 42.1355 210.106 41.8706 210.147 41.5446C210.208 41.4631 210.208 41.4223 210.147 41.4631C210.086 41.4835 210.086 41.5242 210.147 41.5854C210.167 41.728 210.208 41.8706 210.228 42.0132C210.228 42.1151 210.188 42.3189 210.208 42.4004C210.249 42.4411 210.289 42.4818 210.33 42.5226C210.33 42.4615 210.351 42.4003 210.351 42.3392C210.391 42.0336 210.432 41.728 210.473 41.402C210.514 41.0963 210.025 40.9945 209.902 41.239C209.8 41.4427 209.76 41.6261 209.76 41.8502C209.78 42.2373 210.391 42.2373 210.371 41.8502C210.371 41.728 210.371 41.6668 210.432 41.5446C210.249 41.4835 210.045 41.4427 209.862 41.3816C209.821 41.7484 209.719 42.1355 209.719 42.5022C209.719 42.7671 209.862 42.9912 210.126 43.032C210.799 43.1338 210.86 42.2781 210.819 41.8095C210.758 41.3816 210.432 40.4647 209.841 40.9537C209.332 41.3612 209.454 42.2373 209.678 42.7467C209.821 43.0931 210.351 42.7875 210.188 42.4411Z" fill="#161616"/>
<path d="M209.984 35.9007C210.392 34.9431 211.207 33.4354 212.735 32.0295C213.265 31.5405 214.406 30.5014 215.934 29.992C218.827 29.0344 222.597 30.155 224.838 32.8649C227.038 35.5136 227.466 39.3441 225.979 42.6245C220.661 40.3832 215.323 38.142 209.984 35.9007Z" fill="#5222D0"/>
<path d="M200.917 33.4354C209.169 36.7565 217.421 40.0572 225.652 43.3783C226.753 43.8266 227.221 42.054 226.141 41.6057C217.89 38.2846 209.638 34.9838 201.406 31.6627C200.326 31.2348 199.837 33.0075 200.917 33.4354Z" fill="#161616"/>
<path d="M220.518 40.9537C218.868 41.1167 217.727 41.9113 216.382 42.869C213.55 44.9065 213.937 46.0271 212.001 47.2496C208.925 49.2056 206.887 47.0458 204.096 49.0018C201.712 50.6726 201.203 53.6066 201.101 54.2993C200.999 54.9513 200.652 57.6205 202.303 59.9432C203.729 61.9603 206.113 62.9587 206.357 62.6531C206.439 62.5512 206.317 62.1845 205.196 60.9212C205.522 61.3083 206.052 61.8177 206.826 62.1641C207.723 62.5716 208.639 62.6531 208.68 62.5105C208.721 62.4086 208.212 62.2863 207.926 61.777C207.763 61.4713 207.743 61.1657 207.743 60.9212C208.354 61.5936 209.19 62.266 210.147 62.2456C212.776 62.1437 214.63 56.8666 215.241 55.1143C217.217 49.4501 216.382 45.8437 218.949 44.336C219.173 44.2137 220.192 43.6025 221.048 44.01C222.148 44.5193 222.535 46.4957 221.863 47.5756C221.272 48.4925 220.07 48.4721 220.09 48.6758C220.131 48.9407 222.168 49.0833 224.104 48.2276C224.817 47.922 225.388 47.6571 225.836 47.0458C226.59 45.966 226.427 44.4378 225.979 43.4598C225.001 41.3612 222.311 40.7703 220.518 40.9537Z" fill="#161616" stroke="#161616" stroke-width="0.4075" stroke-miterlimit="10"/>
<path opacity="0.22" d="M220.803 49.0018C220.436 48.9407 219.906 48.8185 219.906 48.6962C219.906 48.6351 220.049 48.574 220.049 48.574C220.049 48.5536 219.479 49.0018 218.908 48.9407C218.643 48.9 218.439 48.7573 218.317 48.6351C218.765 50.856 219.153 53.5455 219.173 56.6425C219.214 60.5748 218.704 63.9367 218.134 66.5243C219.356 66.667 221.109 66.7077 223.126 66.2798C224.389 66.015 225.469 65.6075 226.304 65.2203C225.082 61.4713 224.715 58.6188 224.613 56.724C224.552 55.8275 224.491 53.7288 224.45 52.7101C224.389 50.8356 224.328 49.2871 224.307 48.248C224.124 48.3295 223.839 48.4721 223.472 48.6147C222.983 48.8185 221.964 49.1852 220.803 49.0018Z" fill="#6D6C6C"/>
<path d="M219.295 29.8086C221.394 30.8274 222.596 33.0279 222.31 35.1876C221.964 37.7549 219.682 38.957 219.458 39.0792C221.74 39.9961 224.022 40.8926 226.304 41.8095C226.487 41.2797 226.691 40.5462 226.793 39.6294C227.078 36.7361 225.896 34.5764 225.632 34.1485C225.224 33.4557 223.777 31.1126 220.925 30.1754C220.293 29.9309 219.723 29.8494 219.295 29.8086Z" fill="#321693"/>
</svg>
